<?xml version="1.0" encoding="UTF-8"?>
<svg width="17px" height="18px" viewBox="0 0 17 18" version="1.1" xmlns="http://www.w3.org/2000/svg" xmlns:xlink="http://www.w3.org/1999/xlink">
    <!-- Generator: Sketch 41.1 (35376) - http://www.bohemiancoding.com/sketch -->
    <title>GMap</title>
    <desc>Created with Sketch.</desc>
    <defs></defs>
    <g id="Page-1" stroke="none" stroke-width="1" fill="none" fill-rule="evenodd">
        <g id="/demoday" transform="translate(-1160.000000, -915.000000)">
            <g id="Video-container" transform="translate(69.000000, 372.000000)">
                <g id="Video-block" transform="translate(0.000000, 232.000000)">
                    <g id="Text-elements" transform="translate(775.000000, 95.000000)">
                        <g id="Technos" transform="translate(41.000000, 198.000000)">
                            <g id="GMap" transform="translate(275.000000, 18.000000)">
                                <polygon id="Shape" fill="#4ED5BD" points="16.9585625 17.9814545 13.24725 11.9961818 3.7368125 12.0076364 0 17.9814545 8.52071875 17.9929091"></polygon>
                                <path d="M8.5,0.544909091 C5.5675,0.544909091 3.19015625,2.85381818 3.19015625,5.70218182 C3.19015625,5.81563636 3.2905625,7.35272727 3.68103125,8.04545455 C4.9948125,10.9712727 8.4946875,14.1970909 8.5,14.1856364 C8.50478125,14.2025455 12.0195312,10.9576364 13.3269375,8.02909091 C13.7832812,7.08381818 13.8098437,5.75781818 13.8098437,5.70218182 C13.8098437,2.85436364 11.4325,0.544909091 8.5,0.544909091 L8.5,0.544909091 Z M8.49946875,8.18345455 C7.3259375,8.18345455 6.37446875,7.20654545 6.37446875,6.00163636 C6.37446875,4.79672727 7.3259375,3.81981818 8.49946875,3.81981818 C9.673,3.81981818 10.6244688,4.79672727 10.6244688,6.00163636 C10.6244688,7.20654545 9.673,8.18345455 8.49946875,8.18345455 L8.49946875,8.18345455 Z" id="Shape" fill="#F4B459"></path>
                                <path d="M8.49946875,3.27436364 C7.0326875,3.27436364 5.84321875,4.49509091 5.84321875,6.00163636 C5.84321875,7.50872727 7.0326875,8.72890909 8.49946875,8.72890909 C9.9673125,8.72890909 11.1557187,7.50818182 11.1557187,6.00163636 C11.1557187,4.49563636 9.9673125,3.27436364 8.49946875,3.27436364 L8.49946875,3.27436364 Z M8.49946875,7.638 C7.6191875,7.638 6.90571875,6.90545455 6.90571875,6.00163636 C6.90571875,5.09836364 7.6191875,4.36527273 8.49946875,4.36527273 C9.37975,4.36527273 10.0932187,5.09836364 10.0932187,6.00163636 C10.0932187,6.90545455 9.37975,7.638 8.49946875,7.638 L8.49946875,7.638 Z" id="Shape" fill="#CCA032"></path>
                                <path d="M12.2182188,15.8198182 C11.553625,16.1247273 10.1187187,16.374 9.5529375,16.3718182 C9.06525,16.3685455 7.5830625,16.0489091 6.90571875,15.8198182 C6.84090625,15.7985455 5.00703125,14.8729091 3.71821875,14.7289091 C2.37734375,14.5810909 2.12446875,14.7289091 2.12446875,14.7289091 L1.66653125,15.3169091 L0,17.9814545 L8.52071875,17.9929091 L16.9585625,17.9814545 L14.6789688,14.3061818 C14.08875,14.6743636 12.3345625,15.7663636 12.2182188,15.8198182 L12.2182188,15.8198182 Z" id="Shape" fill="#26A6D1"></path>
                            </g>
                        </g>
                    </g>
                </g>
            </g>
        </g>
    </g>
</svg>