<?xml version="1.0" encoding="UTF-8"?>
<svg width="12px" height="17px" viewBox="0 0 12 17" version="1.1" xmlns="http://www.w3.org/2000/svg" xmlns:xlink="http://www.w3.org/1999/xlink">
    <!-- Generator: Sketch 41.1 (35376) - http://www.bohemiancoding.com/sketch -->
    <title>Pusher</title>
    <desc>Created with Sketch.</desc>
    <defs></defs>
    <g id="Page-1" stroke="none" stroke-width="1" fill="none" fill-rule="evenodd">
        <g id="/demoday" transform="translate(-1145.000000, -917.000000)" fill="#000000">
            <g id="Video-container" transform="translate(69.000000, 372.000000)">
                <g id="Video-block" transform="translate(0.000000, 232.000000)">
                    <g id="Text-elements" transform="translate(775.000000, 95.000000)">
                        <g id="Technos" transform="translate(41.000000, 198.000000)">
                            <path d="M270.276812,21.4164531 C268.689114,20.6569757 267.081765,21.5808761 266.236826,22.6496252 C265.722003,23.3464654 265.435117,24.5170002 265.474417,26.1808038 C265.372238,28.5610218 266.441184,32.0726262 266.441184,32.0726262 L268.626234,31.4971459 L267.43153,34.5154814 L267.966003,34.8834757 L269.985996,29.9977652 L268.131061,30.5106082 C268.131061,30.5106082 267.164294,28.416173 267.533709,25.5857494 C267.698767,23.6988003 268.665534,22.6300511 269.616581,22.8140482 C270.583348,23.0998309 270.995993,24.7009973 270.131404,25.9145952 C269.266816,27.1242784 267.863825,27.6801845 267.863825,27.6801845 L267.946353,28.4200878 C267.946353,28.4200878 272.273225,26.9833444 271.986339,23.495229 C271.884161,22.6887736 271.286809,21.8705736 270.276812,21.4164531 L270.276812,21.4164531 Z M263.478003,32.8321036 C263.478003,32.8321036 262.26365,29.5906226 262.181121,26.4470124 C262.098592,25.4409005 262.035713,22.2189937 263.273646,21.6630875 C263.501583,21.2950933 263.851348,21.0249699 263.851348,21.0249699 C263.851348,21.0249699 260.71918,20.7783355 260.884238,26.5057349 C261.194704,30.3422704 261.957114,32.1078597 261.957114,32.1078597 L260,32.6402769 L263.171467,35.1027063 L263.399404,34.5702891 L261.689877,33.3175428 L263.478003,32.8321036 L263.478003,32.8321036 Z M266.173947,32.5228319 C264.546949,26.9207071 264.896714,24.0863686 265.678774,22.4029908 C266.563012,20.5160417 267.820595,21.0288847 267.820595,21.0288847 C267.820595,21.0288847 268.315769,20.8253135 268.869891,20.8253135 C268.909191,20.6413164 266.68484,19.04015 264.377961,20.8644618 C260.687741,24.0667945 263.965317,33.0787381 263.965317,33.0787381 L262.503376,33.4702213 L266.213247,36.2419224 L268.048532,31.9943296 L266.173947,32.5228319 L266.173947,32.5228319 Z M267.887404,25.4213264 L267.804875,26.1416555 C267.804875,26.1416555 269.844518,25.0963953 269.412224,23.1037458 C269.184287,23.1233199 268.689114,23.3895285 268.610515,23.47174 C268.791292,24.8458461 267.887404,25.4213264 267.887404,25.4213264 L267.887404,25.4213264 Z" id="Pusher"></path>
                        </g>
                    </g>
                </g>
            </g>
        </g>
    </g>
</svg>