<?xml version="1.0" encoding="UTF-8"?>
<svg width="15px" height="17px" viewBox="0 0 15 17" version="1.1" xmlns="http://www.w3.org/2000/svg" xmlns:xlink="http://www.w3.org/1999/xlink">
    <!-- Generator: Sketch 41.1 (35376) - http://www.bohemiancoding.com/sketch -->
    <title>algolia</title>
    <desc>Created with Sketch.</desc>
    <defs></defs>
    <g id="Page-1" stroke="none" stroke-width="1" fill="none" fill-rule="evenodd">
        <g id="/demoday" transform="translate(-1125.000000, -915.000000)" fill="#46AEDA">
            <g id="Video-container" transform="translate(69.000000, 372.000000)">
                <g id="Video-block" transform="translate(0.000000, 232.000000)">
                    <g id="Text-elements" transform="translate(775.000000, 95.000000)">
                        <g id="Technos" transform="translate(41.000000, 198.000000)">
                            <g id="algolia" transform="translate(240.000000, 18.000000)">
                                <g id="algolia-mark">
                                    <g id="Page-1">
                                        <path d="M2.42747634,3.23977733 C1.92433739,2.74223213 1.10810557,2.74255067 0.604966618,3.23977733 L0.377233431,3.46497864 C-0.12590552,3.96220531 -0.125583408,4.76936249 0.377233431,5.26690769 L0.619783771,5.50644289 C1.13612931,4.68718153 1.79355992,3.96411649 2.55760959,3.36878232 L2.42747634,3.23977733 L2.42747634,3.23977733 Z M10.2995716,1.99272903 C10.3015043,1.96533538 10.3076244,1.93921584 10.3076244,1.91118513 L10.3076244,1.27412342 C10.3073023,0.570807292 9.73072182,0.000318530855 9.0191764,0 L6.76407026,0 C6.05284695,0.000318530855 5.47594435,0.570488761 5.47594435,1.27412342 L5.47594435,1.90003655 C6.19393201,1.7012733 6.94928466,1.59265428 7.73072838,1.59265428 C8.62652187,1.59265428 9.48945993,1.73408197 10.2995716,1.99272903 L10.2995716,1.99272903 Z M0.644264283,9.9333888 C0.644264283,13.8357643 3.85733895,17 7.82213214,17 C11.7869253,17 15,13.8357643 15,9.9333888 C15,6.03101344 11.7869253,2.8667777 7.82213214,2.8667777 C3.85733895,2.8667777 0.644264283,6.03101344 0.644264283,9.9333888 L0.644264283,9.9333888 Z M7.82213214,4.88580945 C10.6490585,4.88580945 12.9491806,7.15027976 12.9491806,9.9333888 C12.9491806,12.7164979 10.6490585,14.9809683 7.82213214,14.9809683 C4.99520579,14.9809683 2.69508367,12.7164979 2.69508367,9.9333888 C2.69508367,7.15027976 4.99520579,4.88580945 7.82213214,4.88580945 L7.82213214,4.88580945 Z M9.02027661,5.98926674 L7.85229849,10.0639134 L11.6139225,8.03423483 C11.0676205,7.0480633 10.1354284,6.30238256 9.02027661,5.98926674 L9.02027661,5.98926674 Z" id="algolia-mark"></path>
                                    </g>
                                </g>
                            </g>
                        </g>
                    </g>
                </g>
            </g>
        </g>
    </g>
</svg>