<?xml version="1.0" encoding="UTF-8"?>
<svg width="18px" height="18px" viewBox="0 0 18 18" version="1.1" xmlns="http://www.w3.org/2000/svg" xmlns:xlink="http://www.w3.org/1999/xlink">
    <!-- Generator: Sketch 41.1 (35376) - http://www.bohemiancoding.com/sketch -->
    <title>Bot</title>
    <desc>Created with Sketch.</desc>
    <defs>
        <polygon id="path-1" points="0 18 18 18 18 0 0 0"></polygon>
        <path d="M1.25,2.5 C0.5595,2.5 0,1.9405 0,1.25 L0,1.25 C0,0.5595 0.5595,0 1.25,0 L1.25,0 L9.75,0 C10.4405,0 11,0.5595 11,1.25 L11,1.25 C11,1.9405 10.4405,2.5 9.75,2.5 L9.75,2.5 L1.25,2.5 Z" id="path-3"></path>
        <polygon id="path-5" points="0 18 18 18 18 0 0 0"></polygon>
    </defs>
    <g id="Page-1" stroke="none" stroke-width="1" fill="none" fill-rule="evenodd">
        <g id="/demoday" transform="translate(-1179.000000, -916.000000)">
            <g id="Video-container" transform="translate(69.000000, 372.000000)">
                <g id="Video-block" transform="translate(0.000000, 232.000000)">
                    <g id="Text-elements" transform="translate(775.000000, 95.000000)">
                        <g id="Technos" transform="translate(41.000000, 198.000000)">
                            <g id="Bot" transform="translate(303.000000, 28.000000) scale(1, -1) translate(-303.000000, -28.000000) translate(294.000000, 19.000000)">
                                <g id="g12">
                                    <g id="g14-Clipped">
                                        <mask id="mask-2" fill="white">
                                            <use xlink:href="#path-1"></use>
                                        </mask>
                                        <g id="path18"></g>
                                        <g id="g14" mask="url(#mask-2)">
                                            <g transform="translate(0.000000, 0.500000)">
                                                <g id="g20" stroke-width="1" fill="none" transform="translate(15.500000, 8.250000)">
                                                    <path d="M2.5,2 C2.5,1.0335 1.9405,0.25 1.25,0.25 C0.5595,0.25 0,1.0335 0,2 C0,2.9665 0.5595,3.75 1.25,3.75 C1.9405,3.75 2.5,2.9665 2.5,2" id="path22" fill="#F4900C"></path>
                                                </g>
                                                <g id="g24" stroke-width="1" fill="none" transform="translate(0.000000, 8.250000)">
                                                    <path d="M2.5,2 C2.5,1.0335 1.9405,0.25 1.25,0.25 C0.5595,0.25 0,1.0335 0,2 C0,2.9665 0.5595,3.75 1.25,3.75 C1.9405,3.75 2.5,2.9665 2.5,2" id="path26" fill="#F4900C"></path>
                                                </g>
                                                <g id="g28" stroke-width="1" fill="none" transform="translate(14.500000, 7.500000)">
                                                    <path d="M2.5,0.5 C2.5,0.2235 2.2765,0 2,0 L0.5,0 C0.2235,0 0,0.2235 0,0.5 L0,5 C0,5.276 0.2235,5.5 0.5,5.5 L2,5.5 C2.2765,5.5 2.5,5.276 2.5,5 L2.5,0.5 Z" id="path30" fill="#FFAC33"></path>
                                                </g>
                                                <g id="g32" stroke-width="1" fill="none" transform="translate(1.000000, 7.500000)">
                                                    <path d="M2.5,0.5 C2.5,0.2235 2.276,0 2,0 L0.5,0 C0.224,0 0,0.2235 0,0.5 L0,5 C0,5.276 0.224,5.5 0.5,5.5 L2,5.5 C2.276,5.5 2.5,5.276 2.5,5 L2.5,0.5 Z" id="path34" fill="#FFAC33"></path>
                                                </g>
                                                <g id="g36" stroke-width="1" fill="none" transform="translate(4.000000, 13.000000)">
                                                    <path d="M10,2 C10,0.6195 7.7615,0 5,0 C2.2385,0 0,0.6195 0,2 C0,3.3805 2.2385,4.5 5,4.5 C7.7615,4.5 10,3.3805 10,2" id="path38" fill="#FFCC4D"></path>
                                                </g>
                                                <g id="g40" stroke-width="1" fill="none" transform="translate(5.500000, 13.958250)">
                                                    <path d="M7,1.5 C7,0.6945 5.4325,0.0415 3.5,0.0415 C1.567,0.0415 0,0.6945 0,1.5 C0,2.3055 1.567,2.9585 3.5,2.9585 C5.4325,2.9585 7,2.3055 7,1.5" id="path42" fill="#F4900C"></path>
                                                </g>
                                                <g id="g44" stroke-width="1" fill="none" transform="translate(3.000000, 13.750000)">
                                                    <path d="M12,1 C12,0.3095 11.4405,0.25 10.75,0.25 L1.25,0.25 C0.5595,0.25 0,0.3095 0,1 C0,1.6905 0.5595,2.25 1.25,2.25 L10.75,2.25 C11.4405,2.25 12,1.6905 12,1" id="path46" fill="#226699"></path>
                                                </g>
                                                <g id="g48" stroke-width="1" fill="none" transform="translate(2.000000, 1.500000)">
                                                    <path d="M14,1 C14,0.448 13.5525,0 13,0 L1,0 C0.448,0 0,0.448 0,1 L0,12 C0,12.552 0.448,13 1,13 L13,13 C13.5525,13 14,12.552 14,12 L14,1 Z" id="path50" fill="#55ACEE"></path>
                                                </g>
                                                <g id="g52" stroke-width="1" fill="none">
                                                    <path d="M17.5,1 C17.5,0.4475 17.5525,0 17,0 L1,0 C0.448,0 0.5,0.4475 0.5,1 L0.5,1.5 C0.5,2.0525 0.948,2.5 1.5,2.5 L16.5,2.5 C17.0525,2.5 17.5,2.0525 17.5,1.5 L17.5,1 Z" id="path54" fill="#3B88C3"></path>
                                                </g>
                                                <g id="g56" stroke-width="1" fill="none" transform="translate(5.353500, 0.317850)">
                                                    <path d="M4,0.5 C3.8045,0.3045 3.4885,0.3045 3.293,0.5 L0.4645,3.3285 C0.2695,3.524 0.269,3.8405 0.4645,4.0355 L3.293,6.3645 C3.4885,6.5595 3.8045,6.5595 4,6.3645 L6.828,4.0355 C7.0235,3.8405 7.024,3.524 6.828,3.3285 L4,0.5 Z" id="path58" fill="#55ACEE"></path>
                                                </g>
                                                <g id="g60" stroke-width="1" fill="none" transform="translate(3.500000, 7.750000)">
                                                    <path d="M4.5,2.5 C4.5,1.2575 3.4925,0.25 2.25,0.25 C1.0075,0.25 0,1.2575 0,2.5 C0,3.7425 1.0075,4.75 2.25,4.75 C3.4925,4.75 4.5,3.7425 4.5,2.5" id="path62" fill="#FFFFFF"></path>
                                                </g>
                                                <g id="g64" stroke-width="1" fill="none" transform="translate(10.000000, 7.750000)">
                                                    <path d="M4.5,2.5 C4.5,1.2575 3.4925,0.25 2.25,0.25 C1.0075,0.25 0,1.2575 0,2.5 C0,3.7425 1.0075,4.75 2.25,4.75 C3.4925,4.75 4.5,3.7425 4.5,2.5" id="path66" fill="#FFFFFF"></path>
                                                </g>
                                                <g id="g68" stroke-width="1" fill="none" transform="translate(6.000000, 10.500000)">
                                                    <g id="path70"></g>
                                                </g>
                                                <g id="g72" stroke-width="1" fill="none" transform="translate(6.000000, 10.500000)">
                                                    <g id="path74"></g>
                                                </g>
                                                <g id="g76" stroke-width="1" fill="none" transform="translate(11.500000, 8.500000)">
                                                    <path d="M1.5,0.5 C1.5,0.2235 1.2765,0 1,0 L0.5,0 C0.2235,0 0,0.2235 0,0.5 L0,3 C0,3.276 0.2235,3.5 0.5,3.5 L1,3.5 C1.2765,3.5 1.5,3.276 1.5,3 L1.5,0.5 Z" id="path78" fill="#DD2E44"></path>
                                                </g>
                                                <g id="g80" stroke-width="1" fill="none" transform="translate(5.000000, 8.500000)">
                                                    <path d="M1.5,0.5 C1.5,0.2235 1.276,0 1,0 L0.5,0 C0.224,0 0,0.2235 0,0.5 L0,3 C0,3.276 0.224,3.5 0.5,3.5 L1,3.5 C1.276,3.5 1.5,3.276 1.5,3 L1.5,0.5 Z" id="path82" fill="#DD2E44"></path>
                                                </g>
                                                <g id="g84" stroke-width="1" fill="none" transform="translate(3.500000, 3.250000)">
                                                    <path d="M11,1.5 C11,0.8095 10.4405,0.25 9.75,0.25 L1.25,0.25 C0.5595,0.25 0,0.8095 0,1.5 C0,2.1905 0.5595,2.75 1.25,2.75 L9.75,2.75 C10.4405,2.75 11,2.1905 11,1.5" id="path86" fill="#F5F8FA"></path>
                                                </g>
                                                <polygon id="path88" fill="#CCD6DD" points="9.5 3.5 8.5 3.5 8.5 6 9.5 6"></polygon>
                                                <polygon id="path90" fill="#CCD6DD" points="7 3.5 6 3.5 6 6 7 6"></polygon>
                                                <polygon id="path92" fill="#CCD6DD" points="12 3.5 11 3.5 11 6 12 6"></polygon>
                                            </g>
                                        </g>
                                    </g>
                                </g>
                                <g id="g94" transform="translate(3.500000, 4.000000)">
                                    <g id="g96-Clipped">
                                        <mask id="mask-4" fill="white">
                                            <use xlink:href="#path-3"></use>
                                        </mask>
                                        <g id="path100"></g>
                                        <g id="g96" mask="url(#mask-4)" fill="#CCD6DD">
                                            <polygon id="path102" points="1 0 0 0 0 2.5 1 2.5"></polygon>
                                            <polygon id="path104" points="11 0 10 0 10 2.5 11 2.5"></polygon>
                                        </g>
                                    </g>
                                </g>
                                <g id="g106">
                                    <g id="g108-Clipped">
                                        <mask id="mask-6" fill="white">
                                            <use xlink:href="#path-5"></use>
                                        </mask>
                                        <g id="path112"></g>
                                        <g id="g108" mask="url(#mask-6)">
                                            <g transform="translate(15.000000, 1.500000)">
                                                <g id="g114">
                                                    <g id="path116"></g>
                                                </g>
                                                <g id="g118">
                                                    <g id="path120"></g>
                                                </g>
                                            </g>
                                        </g>
                                    </g>
                                </g>
                            </g>
                        </g>
                    </g>
                </g>
            </g>
        </g>
    </g>
</svg>