<?xml version="1.0" encoding="UTF-8"?>
<svg width="250px" height="250px" viewBox="0 0 250 250" version="1.1" xmlns="http://www.w3.org/2000/svg" xmlns:xlink="http://www.w3.org/1999/xlink">
    <!-- Generator: Sketch 41.2 (35397) - http://www.bohemiancoding.com/sketch -->
    <title>icon-1color-red-on-white</title>
    <desc>Created with Sketch.</desc>
    <defs></defs>
    <g id="Page-1" stroke="none" stroke-width="1" fill="none" fill-rule="evenodd">
        <g id="icon-1color-red-on-white">
            <g id="Group" transform="translate(25.000000, 25.000000)">
                <g id="Clever-Square">
                    <rect id="Rectangle-1" fill="#CB243C" x="0" y="0" width="200" height="200" rx="5"></rect>
                    <g id="logo-bottle" transform="translate(79.200000, 41.200000)" fill="#FFFFFF">
                        <g id="Page-1">
                            <g id="Group-7">
                                <path d="M18.7214249,33.1066597 L15.54994,33.1066597 C15.54994,33.1066597 15.1823667,33.3530105 15.3055814,33.7173614 L15.4246545,34.0827474 L15.7953341,38.963186 C15.7953341,38.963186 15.3055814,39.2085017 15.1823667,40.061414 C15.0612228,40.9153614 16.0376218,43.234993 16.0376218,43.234993 C16.0376218,43.234993 15.7953341,79.3968173 15.7953341,79.4992911 C15.7238902,89.6276246 1.59250719,95.9706419 1.92591174,108.1588 C2.16923494,117.102993 10.0922524,117.927958 17.2532024,117.927958 C23.1602613,117.927958 32.8952601,118.809853 35.0054417,111.683274 C39.3614446,96.9839928 21.7282784,91.1761157 21.6495867,79.4992911 C21.6495867,79.3968173 21.4072989,43.234993 21.4072989,43.234993 C21.4072989,43.234993 22.3836979,40.9153614 22.262554,40.061414 C22.1393393,39.2085017 21.6495867,38.963186 21.6495867,38.963186 L22.0181954,34.0827474 L22.1393393,33.7173614 C22.262554,33.3530105 21.8939453,33.1066597 21.8939453,33.1066597 L18.7214249,33.1066597 L18.7214249,33.1066597 Z" id="Fill-1"></path>
                                <path d="M0.520746157,23.9444772 C1.33562002,25.842828 4.2037275,26.656407 5.28573917,26.656407 L35.2641926,26.656407 C36.3234251,26.656407 38.3559504,25.901828 39.4483162,24.6348807 C41.430106,22.3452667 42.8434514,18.3808807 41.449779,14.1898105 C39.2805785,7.68842458 34.9442485,6.06437195 28.1653678,7.96065263 C27.3546356,4.97752983 25.9972027,-1.25162807 16.7840546,0.373459649 C10.2888783,1.51723158 10.0072446,10.1260561 11.0913271,11.209793 C0.520746157,11.0069158 -1.2384288,19.8382842 0.520746157,23.9444772" id="Fill-3"></path>
                                <polygon id="Fill-5" points="15.7608546 25.4607772 18.0273843 29.0856544 21.6554885 25.4607772"></polygon>
                            </g>
                        </g>
                    </g>
                </g>
            </g>
        </g>
    </g>
</svg>