<?xml version="1.0" encoding="UTF-8"?>
<svg width="15px" height="17px" viewBox="0 0 15 17" version="1.1" xmlns="http://www.w3.org/2000/svg" xmlns:xlink="http://www.w3.org/1999/xlink">
    <!-- Generator: Sketch 41.1 (35376) - http://www.bohemiancoding.com/sketch -->
    <title>css3</title>
    <desc>Created with Sketch.</desc>
    <defs></defs>
    <g id="Page-1" stroke="none" stroke-width="1" fill="none" fill-rule="evenodd" opacity="0.595731431">
        <g id="/demoday" transform="translate(-953.000000, -916.000000)" fill="#379AD3">
            <g id="Video-container" transform="translate(69.000000, 372.000000)">
                <g id="Video-block" transform="translate(0.000000, 232.000000)">
                    <g id="Text-elements" transform="translate(775.000000, 95.000000)">
                        <g id="Technos" transform="translate(41.000000, 198.000000)">
                            <g id="css3" transform="translate(68.000000, 19.000000)">
                                <g id="Shape">
                                    <g id="Page-1">
                                        <path d="M0.464375,0.326777778 L1.745,14.7962963 L7.49125,16.4031111 L13.25375,14.7937778 L14.535625,0.326777778 L0.464375,0.326777778 L0.464375,0.326777778 L0.464375,0.326777778 Z M11.875,3.63611111 L11.441875,8.52644444 L11.141875,11.9006296 L11.115625,12.2003333 L7.5025,13.2096296 L3.894375,12.2003333 L3.6475,9.41359259 L5.415625,9.41359259 L5.54125,10.829 L7.505,11.3622963 L7.51,11.361037 L7.51125,11.361037 L9.47,10.8283704 L9.675625,8.52707407 L5.56375,8.52707407 L5.52875,8.12851852 L5.448125,7.22877778 L5.40625,6.75277778 L9.831875,6.75277778 L9.993125,4.93566667 L3.251875,4.93566667 L3.216875,4.53648148 L3.13625,3.63674074 L3.094375,3.16074074 L11.918125,3.16074074 L11.875625,3.63674074 L11.875,3.63611111 L11.875,3.63611111 Z" id="Shape"></path>
                                    </g>
                                </g>
                            </g>
                        </g>
                    </g>
                </g>
            </g>
        </g>
    </g>
</svg>