<?xml version="1.0" encoding="UTF-8"?>
<svg width="14px" height="17px" viewBox="0 0 14 17" version="1.1" xmlns="http://www.w3.org/2000/svg" xmlns:xlink="http://www.w3.org/1999/xlink">
    <!-- Generator: Sketch 41.1 (35376) - http://www.bohemiancoding.com/sketch -->
    <title>heroku</title>
    <desc>Created with Sketch.</desc>
    <defs></defs>
    <g id="Page-1" stroke="none" stroke-width="1" fill="none" fill-rule="evenodd" opacity="0.595731431">
        <g id="/demoday" transform="translate(-1030.000000, -916.000000)">
            <g id="Video-container" transform="translate(69.000000, 372.000000)">
                <g id="Video-block" transform="translate(0.000000, 232.000000)">
                    <g id="Text-elements" transform="translate(775.000000, 95.000000)">
                        <g id="Technos" transform="translate(41.000000, 198.000000)">
                            <g id="heroku" transform="translate(145.000000, 19.000000)">
                                <g id="Calque_1">
                                    <g id="Group">
                                        <path d="M12.1333333,16.7875 L1.75897436,16.7875 C0.861538462,16.7875 0.143589744,16.0791667 0.143589744,15.19375 L0.143589744,1.77083333 C0.143589744,0.885416667 0.861538462,0.177083333 1.75897436,0.177083333 L12.0974359,0.177083333 C12.9948718,0.177083333 13.7128205,0.885416667 13.7128205,1.77083333 L13.7128205,15.19375 C13.7128205,16.0791667 12.9948718,16.7875 12.1333333,16.7875 L12.1333333,16.7875 L12.1333333,16.7875 L12.1333333,16.7875 Z" id="Shape" fill="#6762A6"></path>
                                        <path d="M8.65128205,14.4854167 L8.65128205,7.89791667 C8.65128205,7.89791667 9.08205128,6.33958333 3.3025641,8.53541667 C3.3025641,8.57083333 3.3025641,2.44375 3.3025641,2.44375 L5.20512821,2.44375 L5.20512821,6.375 C5.20512821,6.375 10.4820513,4.32083333 10.4820513,7.93333333 L10.4820513,14.4854167 L8.65128205,14.4854167 L8.65128205,14.4854167 L8.65128205,14.4854167 L8.65128205,14.4854167 Z M9.72820513,4.81666667 L7.71794872,4.81666667 C8.43589744,3.93125 9.08205128,2.44375 9.08205128,2.44375 L11.1641026,2.44375 C11.1641026,2.47916667 10.8051282,3.43541667 9.72820513,4.81666667 L9.72820513,4.81666667 L9.72820513,4.81666667 L9.72820513,4.81666667 Z M3.33846154,14.4854167 L3.33846154,10.73125 L5.24102564,12.6083333 L3.33846154,14.4854167 L3.33846154,14.4854167 L3.33846154,14.4854167 Z" id="Shape" fill="#FFFFFF"></path>
                                    </g>
                                </g>
                            </g>
                        </g>
                    </g>
                </g>
            </g>
        </g>
    </g>
</svg>