<?xml version="1.0" encoding="UTF-8"?>
<svg width="15px" height="17px" viewBox="0 0 15 17" version="1.1" xmlns="http://www.w3.org/2000/svg" xmlns:xlink="http://www.w3.org/1999/xlink">
    <!-- Generator: Sketch 41.1 (35376) - http://www.bohemiancoding.com/sketch -->
    <title>html5</title>
    <desc>Created with Sketch.</desc>
    <defs></defs>
    <g id="Page-1" stroke="none" stroke-width="1" fill="none" fill-rule="evenodd" opacity="0.595731431">
        <g id="/demoday" transform="translate(-932.000000, -916.000000)" fill="#E54D25">
            <g id="Video-container" transform="translate(69.000000, 372.000000)">
                <g id="Video-block" transform="translate(0.000000, 232.000000)">
                    <g id="Text-elements" transform="translate(775.000000, 95.000000)">
                        <g id="Technos" transform="translate(41.000000, 198.000000)">
                            <g id="html5" transform="translate(47.000000, 19.000000)">
                                <g id="Shape">
                                    <g id="Page-1">
                                        <path d="M0.415625,0.258777778 L1.705,14.8510741 L7.49125,16.4717407 L13.29375,14.8485556 L14.584375,0.258777778 L0.415,0.258777778 L0.415625,0.258777778 L0.415625,0.258777778 Z M3.094375,3.72174074 L3.051875,3.24133333 L7.49375,3.24133333 L7.49375,5.03074074 L4.990625,5.03074074 L5.1525,6.86359259 L7.49375,6.86359259 L7.49375,8.653 L3.530625,8.653 L3.094375,3.72111111 L3.094375,3.72174074 L3.094375,3.72174074 Z M11.57375,7.34462963 L11.156875,12.0561481 L11.13,12.3583704 L7.49125,13.3758519 L3.8575,12.3583704 L3.60875,9.54833333 L5.389375,9.54833333 L5.515625,10.9757037 L7.4925,11.5134074 L9.470625,10.9744444 L9.67625,8.65362963 L7.498125,8.65362963 L7.498125,6.86422222 L11.615,6.86422222 L11.571875,7.34462963 L11.57375,7.34462963 L11.57375,7.34462963 Z M11.895,3.72174074 L11.814375,4.62903704 L11.77875,5.03137037 L7.5,5.03137037 L7.5,3.24196296 L11.9375,3.24196296 L11.895,3.72174074 L11.895,3.72174074 L11.895,3.72174074 Z" id="Shape"></path>
                                    </g>
                                </g>
                            </g>
                        </g>
                    </g>
                </g>
            </g>
        </g>
    </g>
</svg>