<?xml version="1.0" encoding="UTF-8"?>
<svg width="17px" height="17px" viewBox="0 0 17 17" version="1.1" xmlns="http://www.w3.org/2000/svg" xmlns:xlink="http://www.w3.org/1999/xlink">
    <!-- Generator: Sketch 41.1 (35376) - http://www.bohemiancoding.com/sketch -->
    <title>js</title>
    <desc>Created with Sketch.</desc>
    <defs></defs>
    <g id="Page-1" stroke="none" stroke-width="1" fill="none" fill-rule="evenodd" opacity="0.595731431">
        <g id="/demoday" transform="translate(-974.000000, -916.000000)" fill="#F1DC3F">
            <g id="Video-container" transform="translate(69.000000, 372.000000)">
                <g id="Video-block" transform="translate(0.000000, 232.000000)">
                    <g id="Text-elements" transform="translate(775.000000, 95.000000)">
                        <g id="Technos" transform="translate(41.000000, 198.000000)">
                            <g id="js" transform="translate(89.000000, 19.000000)">
                                <g id="Shape">
                                    <g id="Page-1">
                                        <path d="M0.204,0.3559375 L0.204,16.9819375 L16.83,16.9819375 L16.83,0.3559375 L0.204,0.3559375 L0.204,0.3559375 L0.204,0.3559375 Z M8.8814375,14.5785625 C8.63653125,15.0763437 8.1685,15.4035937 7.626625,15.561375 C6.793625,15.752625 5.99728125,15.6437187 5.40440625,15.2877812 C5.0075625,15.0444687 4.69784375,14.6699375 4.488,14.2385625 C4.9098125,13.9809062 5.3305625,13.7216562 5.752375,13.464 C5.76353125,13.4687812 5.79646875,13.5288125 5.84109375,13.606375 C6.0020625,13.8767812 6.14125,14.0680312 6.41484375,14.2019062 C6.68365625,14.2932812 7.2728125,14.35225 7.50071875,13.8794375 C7.63990625,13.6393125 7.59528125,12.8509375 7.59528125,11.9961562 C7.59528125,10.652625 7.60165625,9.33140625 7.60165625,7.97140625 L9.156625,7.97140625 C9.156625,9.39940625 9.16459375,10.831125 9.156625,12.257 C9.1598125,13.1309062 9.23578125,13.925125 8.8814375,14.5780312 L8.8814375,14.5785625 L8.8814375,14.5785625 Z M15.3329375,14.1392187 C14.7926562,15.9885 11.7783437,16.0485312 10.5745312,14.8266562 C10.3200625,14.53925 10.1606875,14.3889062 10.00875,14.056875 C10.6489062,13.6887187 10.6489062,13.6887187 11.2715312,13.3285312 C11.6099375,13.848625 11.9228437,14.1344375 12.4854375,14.2513125 C13.2488437,14.3442812 14.0170312,14.082375 13.8449062,13.2716875 C13.668,12.6092187 12.2819687,12.44825 11.3384687,11.7400937 C10.380625,11.09675 10.1564375,9.5338125 10.9432187,8.64078125 C11.2056562,8.31034375 11.6529687,8.06384375 12.1220625,7.945375 C12.284625,7.92465625 12.4493125,7.902875 12.611875,7.88215625 C13.5521875,7.86303125 14.1402812,8.111125 14.5716562,8.5935 C14.6917187,8.71515625 14.7894687,8.846375 14.9732812,9.131125 C14.4723125,9.45040625 14.4739062,9.44721875 13.7561875,9.9120625 C13.6026562,9.581625 13.3487187,9.3744375 13.0799062,9.28465625 C12.662875,9.15821875 12.1364062,9.2958125 12.0275,9.73675 C11.9897812,9.87275 11.99775,9.9991875 12.0577812,10.223375 C12.2267187,10.6090625 12.7940937,10.7764062 13.3030312,11.0101562 C14.7682187,11.604625 15.2628125,12.2410625 15.3844687,12.9996875 C15.5013437,13.6525937 15.3557812,14.076 15.334,14.1392187 L15.3329375,14.1392187 L15.3329375,14.1392187 Z" id="Shape"></path>
                                    </g>
                                </g>
                            </g>
                        </g>
                    </g>
                </g>
            </g>
        </g>
    </g>
</svg>