<?xml version="1.0" encoding="UTF-8"?>
<svg width="18px" height="17px" viewBox="0 0 18 17" version="1.1" xmlns="http://www.w3.org/2000/svg" xmlns:xlink="http://www.w3.org/1999/xlink">
    <!-- Generator: Sketch 41.1 (35376) - http://www.bohemiancoding.com/sketch -->
    <title>rails</title>
    <desc>Created with Sketch.</desc>
    <defs></defs>
    <g id="Page-1" stroke="none" stroke-width="1" fill="none" fill-rule="evenodd" opacity="0.595731431">
        <g id="/demoday" transform="translate(-908.000000, -915.000000)" fill="#C22821">
            <g id="Video-container" transform="translate(69.000000, 372.000000)">
                <g id="Video-block" transform="translate(0.000000, 232.000000)">
                    <g id="Text-elements" transform="translate(775.000000, 95.000000)">
                        <g id="Technos" transform="translate(41.000000, 198.000000)">
                            <g id="rails" transform="translate(23.000000, 18.000000)">
                                <g id="Shape">
                                    <g id="Page-1">
                                        <path d="M2.33475,16.5720435 L10.63875,16.5720435 C10.63875,16.5720435 8.79675,12.4491739 9.26475,8.66482609 C9.73275,4.88047826 12.76125,3.15756522 14.478,2.97278261 C16.19475,2.788 17.1315,3.8346087 17.1315,3.8346087 L17.5065,3.281 C17.5065,3.281 15.0405,0.819695652 11.91825,1.09686957 C8.796,1.37404348 6.642,3.40443478 5.30025,5.86573913 C3.95775,8.32704348 3.177,10.0499565 2.64675,12.6346957 C2.1165,15.2194348 2.33475,16.5727826 2.33475,16.5727826 L2.33475,16.5720435 L2.33475,16.5720435 Z M0.68025,12.4491739 L2.30325,12.5726087 L2.022,14.172087 L0.492,13.9873043 L0.6795,12.4491739 L0.68025,12.4491739 L0.68025,12.4491739 Z M3.24,9.06469565 L3.67725,7.86508696 L2.241,7.31147826 L1.773,8.60347826 L3.24,9.06469565 L3.24,9.06469565 L3.24,9.06469565 Z M5.2695,4.94182609 L6.1125,3.95730435 L5.01975,3.24995652 L4.146,4.20343478 L5.2695,4.94182609 L5.2695,4.94182609 L5.2695,4.94182609 Z M7.48575,1.12717391 L8.235,2.01930435 L9.2655,1.43465217 L8.51625,0.603869565 L7.48575,1.12717391 L7.48575,1.12717391 L7.48575,1.12717391 Z M11.13825,0.111608696 L11.32575,1.00373913 L12.606,0.972695652 L12.48075,0.172956522 L11.13825,0.111608696 L11.13825,0.111608696 L11.13825,0.111608696 Z M15.47775,1.06508696 L15.44625,1.61869565 L16.32075,2.07991304 L16.50825,1.80273913 L15.4785,1.06434783 L15.47775,1.06508696 L15.47775,1.06508696 Z M15.29025,3.43473913 L15.29025,3.89595652 L16.13325,3.98834783 L16.13325,3.61878261 L15.29025,3.434 L15.29025,3.43473913 L15.29025,3.43473913 Z M12.606,3.8346087 L13.01175,4.573 L13.605,4.11178261 L13.4805,3.61952174 L12.60675,3.83534783 L12.606,3.8346087 L12.606,3.8346087 Z M11.32575,4.78808696 L11.94975,5.71126087 L11.5755,6.35726087 L10.67025,5.37273913 L11.32575,4.78808696 L11.32575,4.78808696 L11.32575,4.78808696 Z M10.077,7.34178261 L9.67125,8.14152174 L10.7325,9.03365217 L10.98225,8.01808696 L10.077,7.34104348 L10.077,7.34178261 L10.077,7.34178261 Z M9.63975,10.1416087 L9.5775,11.2185217 L10.8885,11.7721304 L10.82625,10.7565652 L9.63975,10.1408696 L9.63975,10.1416087 L9.63975,10.1416087 Z M10.01475,13.9562609 L10.3275,15.0642174 L11.982,15.1566087 L11.38875,13.957 L10.01475,13.957 L10.01475,13.9562609 L10.01475,13.9562609 Z" id="Shape"></path>
                                    </g>
                                </g>
                            </g>
                        </g>
                    </g>
                </g>
            </g>
        </g>
    </g>
</svg>