<?xml version="1.0" encoding="UTF-8"?>
<svg width="19px" height="17px" viewBox="0 0 19 17" version="1.1" xmlns="http://www.w3.org/2000/svg" xmlns:xlink="http://www.w3.org/1999/xlink">
    <!-- Generator: Sketch 41.1 (35376) - http://www.bohemiancoding.com/sketch -->
    <title>react</title>
    <desc>Created with Sketch.</desc>
    <defs></defs>
    <g id="Page-1" stroke="none" stroke-width="1" fill="none" fill-rule="evenodd">
        <g id="/demoday" transform="translate(-1050.000000, -916.000000)">
            <g id="Video-container" transform="translate(69.000000, 372.000000)">
                <g id="Video-block" transform="translate(0.000000, 232.000000)">
                    <g id="Text-elements" transform="translate(775.000000, 95.000000)">
                        <g id="Technos" transform="translate(41.000000, 198.000000)">
                            <g id="react" transform="translate(165.000000, 19.000000)">
                                <g id="Group">
                                    <path d="M0.0559701489,8.48154694 C0.0559701489,9.90173737 1.44849789,11.2275428 3.64393281,11.9748388 C3.20552495,14.1728431 3.56536241,15.9444196 4.76725879,16.6347294 C6.00268388,17.3442282 7.84316259,16.8531067 9.59002675,15.3324342 C11.2928181,16.7917185 13.0137924,17.3660198 14.2145689,16.6737482 C15.4487859,15.9621897 15.8242081,14.0704567 15.3736757,11.8038461 C17.6603375,11.050936 18.9394328,9.9204316 18.9394328,8.48154694 C18.9394328,7.09428231 17.5443214,5.89411154 15.3784979,5.15159073 C15.8635134,2.79130478 15.4525456,1.06271704 14.2008981,0.343899286 C12.9941786,-0.349085537 11.2532264,0.254921387 9.52539216,1.7524235 C7.72787423,0.162943347 6.0041,-0.32234489 4.75366581,0.398567923 C3.5481192,1.09352395 3.20410579,2.89729494 3.64393281,5.13599125 C1.52262953,5.87255409 0.0559701489,7.09983018 0.0559701489,8.48154694 L0.0559701489,8.48154694 Z" id="Shape" fill="#FFFFFF"></path>
                                    <path d="M14.919791,5.88895653 C14.7458209,5.82932259 14.5655522,5.77289923 14.3799403,5.71953786 C14.4104478,5.59554324 14.4384477,5.47315392 14.4633433,5.35284555 C14.872,3.37734463 14.604806,1.78586733 13.6924179,1.26188528 C12.8175522,0.759455886 11.3867761,1.28331902 9.94176121,2.53569141 C9.80280597,2.65611869 9.66346264,2.78362119 9.52417913,2.91724761 C9.43137311,2.82883716 9.33871642,2.74339949 9.24629857,2.66167779 C7.73188063,1.3225597 6.21391045,0.758237045 5.30241791,1.28373521 C4.42838805,1.78762127 4.16955224,3.28376155 4.53740299,5.15595839 C4.57292537,5.33679254 4.61444776,5.52146158 4.66140299,5.70922231 C4.44656716,5.76995619 4.23916418,5.83470332 4.04071642,5.90358261 C2.26522388,6.52004781 1.13131343,7.48620101 1.13131343,8.48835456 C1.13131343,9.52338714 2.34856716,10.5615411 4.1978806,11.191027 C4.34382089,11.2407022 4.49525373,11.287672 4.65131344,11.3322637 C4.60065672,11.5353343 4.55659702,11.7343321 4.51961194,11.9284249 C4.16886567,13.7681293 4.44277612,15.2289231 5.31447761,15.7296284 C6.21486567,16.2467136 7.72597015,15.7152104 9.19740296,14.4342993 C9.31370151,14.3330464 9.43041792,14.2256697 9.54734325,14.1131203 C9.69889556,14.2584594 9.85020889,14.3960099 10.0007164,14.5250285 C11.4259702,15.7464543 12.8336418,16.2396681 13.7045373,15.7375657 C14.6040298,15.218994 14.8963583,13.6497532 14.5168358,11.7405155 C14.4878507,11.5947007 14.4541194,11.4457347 14.4162388,11.294123 C14.5223582,11.262879 14.6265373,11.2306244 14.7281194,11.1970915 C16.6506568,10.5627302 17.9015223,9.5372105 17.9015223,8.48835456 C17.9015223,7.48257424 16.7310447,6.50991064 14.919791,5.88895653 L14.919791,5.88895653 L14.919791,5.88895653 L14.919791,5.88895653 Z" id="Shape" fill="#53C1DE"></path>
                                    <path d="M14.502806,10.5198627 C14.4111045,10.5500958 14.3170149,10.5793183 14.2211343,10.6076488 C14.0088956,9.938506 13.7224478,9.2269713 13.3719105,8.49183276 C13.7064179,7.77420385 13.981791,7.0717659 14.1880895,6.4069633 C14.3596418,6.45640061 14.5261493,6.50854317 14.6865971,6.56356931 C16.2384776,7.09560758 17.1851045,7.88223463 17.1851045,8.48835456 C17.1851045,9.13398277 16.1627762,9.97209837 14.502806,10.5198627 L14.502806,10.5198627 L14.502806,10.5198627 L14.502806,10.5198627 Z M13.8140299,11.8790767 C13.9818507,12.7233163 14.0058208,13.486607 13.8946567,14.0833033 C13.7947761,14.6194737 13.5939104,14.9769504 13.3455522,15.1201195 C12.8170447,15.4247699 11.6868359,15.028766 10.4679403,13.9841908 C10.328209,13.8644473 10.1874627,13.7365881 10.0462686,13.6012671 C10.518806,13.0865899 10.9910747,12.4882587 11.452,11.8237533 C12.2627164,11.7521094 13.0286568,11.6349818 13.7232537,11.4750761 C13.7574627,11.6125076 13.7878508,11.7472934 13.8140299,11.8790767 L13.8140299,11.8790767 L13.8140299,11.8790767 L13.8140299,11.8790767 Z M6.84865672,15.0674716 C6.33229851,15.2490786 5.92104478,15.254281 5.67244776,15.1115281 C5.14346269,14.8076804 4.92355224,13.6348001 5.22352239,12.0614865 C5.2578806,11.8813063 5.29877612,11.6962211 5.34591045,11.5070335 C6.03289552,11.6583182 6.79322388,11.7671813 7.60588057,11.8327906 C8.06991045,12.4830266 8.5558209,13.0807038 9.04549254,13.6040318 C8.93850747,13.7068899 8.83194026,13.8048133 8.72597013,13.8970884 C8.07531343,14.463492 7.4232836,14.8653523 6.84865672,15.0674716 L6.84865672,15.0674716 L6.84865672,15.0674716 L6.84865672,15.0674716 Z M4.42958209,10.5159089 C3.61185075,10.2375676 2.93653732,9.87581007 2.47364179,9.48105477 C2.0577015,9.12631304 1.84770149,8.77412788 1.84770149,8.48835456 C1.84770149,7.88021319 2.75811941,7.10452592 4.27653732,6.57730354 C4.46077612,6.51332933 4.65364179,6.45304138 4.85379105,6.39640993 C5.06364179,7.07622506 5.33892537,7.78698681 5.67113433,8.50571562 C5.33462687,9.23511666 5.05543284,9.95720482 4.84352239,10.6449869 C4.70083582,10.6041409 4.56259702,10.5611546 4.42958209,10.5159089 L4.42958209,10.5159089 L4.42958209,10.5159089 L4.42958209,10.5159089 Z M5.24047762,5.01894299 C4.92531343,3.41489084 5.13462687,2.20485083 5.66134328,1.90121116 C6.22238806,1.57774307 7.4630149,2.03894001 8.77059705,3.19520246 C8.85417909,3.26910575 8.93808955,3.34645746 9.02223884,3.42648468 C8.5349851,3.94752367 8.05352243,4.54071202 7.59361199,5.18711311 C6.80489552,5.25991647 6.04991044,5.37686561 5.3557612,5.5334716 C5.3121194,5.35864246 5.27346268,5.18687529 5.24047762,5.01894299 L5.24047762,5.01894299 L5.24047762,5.01894299 L5.24047762,5.01894299 Z M12.474388,6.7978243 C12.3084478,6.51237804 12.1380895,6.23368 11.9644179,5.96259228 C12.4994926,6.02995545 13.0121492,6.11937665 13.4935821,6.22880465 C13.3490447,6.69012051 13.1688955,7.17245392 12.9568358,7.66691626 C12.8047165,7.37929989 12.6438209,7.08930529 12.474388,6.7978243 L12.474388,6.7978243 L12.474388,6.7978243 L12.474388,6.7978243 Z M9.52441789,3.93637575 C9.85486567,4.29290116 10.185791,4.69095627 10.5112836,5.12284162 C10.1832836,5.1074129 9.85122383,5.0993864 9.51641793,5.0993864 C9.18477612,5.0993864 8.8551642,5.10723453 8.52919404,5.1223957 C8.85501494,4.69452361 9.18880598,4.29700358 9.52441789,3.93637575 L9.52441789,3.93637575 L9.52441789,3.93637575 L9.52441789,3.93637575 Z M6.55555224,6.80275911 C6.38979104,7.08900801 6.2318806,7.37742705 6.08214926,7.6663812 C5.87352238,7.17364304 5.69504478,6.68910976 5.54925373,6.22125378 C6.02773134,6.11462019 6.53797015,6.02742859 7.06964179,5.96134371 C6.89352239,6.23492857 6.72176119,6.51567783 6.55555224,6.80269965 L6.55555224,6.80275911 L6.55555224,6.80275911 L6.55555224,6.80275911 Z M7.08495522,11.0662595 C6.53564179,11.0052283 6.01773134,10.9225256 5.53937313,10.818835 C5.68749254,10.3426256 5.86991045,9.84774707 6.08295522,9.34439606 C6.23307463,9.6331421 6.39161194,9.92168007 6.55838806,10.2085533 L6.55841791,10.2085533 C6.72829851,10.5008072 6.90429851,10.7870858 7.08495522,11.0662595 L7.08495522,11.0662595 L7.08495522,11.0662595 L7.08495522,11.0662595 Z M9.54423883,13.0906328 C9.20468656,12.7257836 8.86599998,12.3221992 8.53522386,11.8880843 C8.85632832,11.9006294 9.18370143,11.9070506 9.51641793,11.9070506 C9.85823884,11.9070506 10.1961492,11.8993808 10.5287463,11.8846358 C10.2021791,12.3265692 9.8724478,12.730778 9.54423883,13.0906328 L9.54423883,13.0906328 L9.54423883,13.0906328 L9.54423883,13.0906328 Z M12.9636716,9.31874099 C13.1878209,9.82753214 13.3767761,10.3198244 13.526806,10.7879182 C13.0405672,10.8983866 12.5155821,10.9873619 11.9624478,11.0534766 C12.1365374,10.7787323 12.3083881,10.495248 12.4772537,10.2036481 C12.6480896,9.90862961 12.8102985,9.6131651 12.9636716,9.31874099 L12.9636716,9.31874099 L12.9636716,9.31874099 L12.9636716,9.31874099 Z M11.8566865,9.84721193 C11.5945373,10.299877 11.325403,10.7320001 11.0521791,11.1398953 C10.5545373,11.1753307 10.0404179,11.1935836 9.51641793,11.1935836 C8.99453736,11.1935836 8.48689551,11.1774414 7.99805972,11.1458408 C7.71382091,10.7325948 7.43883584,10.2991933 7.17835821,9.85110627 L7.17841791,9.85110627 C6.91862686,9.40423813 6.67952239,8.95359452 6.46286568,8.50547784 C6.67946268,8.05632062 6.91794029,7.60517167 7.17623881,7.15910614 L7.17617911,7.15919533 C7.43516416,6.71194071 7.70773134,6.28064991 7.98934325,5.8699902 C8.48808954,5.83244401 8.99952241,5.81285339 9.51638809,5.81285339 L9.51641793,5.81285339 C10.0356119,5.81285339 10.5477015,5.83259264 11.0462984,5.87046585 C11.3236119,6.27812305 11.5943284,6.70801664 11.8543284,7.15533072 C12.1172836,7.60766882 12.3588358,8.0558152 12.5772836,8.49534067 C12.3594926,8.94241687 12.1184777,9.395082 11.8566865,9.84721193 L11.8566865,9.84721193 L11.8566865,9.84721193 L11.8566865,9.84721193 Z M13.3345672,1.87998552 C13.8961493,2.20250233 14.1145373,3.50321211 13.7617015,5.20884413 C13.739194,5.31767757 13.7138508,5.4285325 13.6863283,5.54087382 C12.9905671,5.38099777 12.2350447,5.26202715 11.4440299,5.18812385 C10.9832239,4.53461782 10.5057015,3.94050791 10.026388,3.42615766 C10.1552537,3.30269816 10.2839403,3.1849761 10.4120895,3.07388335 C11.6501791,2.00085872 12.8073433,1.57720797 13.3345672,1.87998552 L13.3345672,1.87998552 L13.3345672,1.87998552 L13.3345672,1.87998552 Z" id="Shape" fill="#FFFFFF"></path>
                                    <path d="M9.51641793,6.99700049 C10.3434627,6.99700049 11.0139403,7.66468667 11.0139403,8.48835456 C11.0139403,9.31199273 10.3434627,9.97970875 9.51641793,9.97970875 C8.68937316,9.97970875 8.01889552,9.31199273 8.01889552,8.48835456 C8.01889552,7.66468667 8.68937316,6.99700049 9.51641793,6.99700049" id="Shape" fill="#53C1DE"></path>
                                </g>
                            </g>
                        </g>
                    </g>
                </g>
            </g>
        </g>
    </g>
</svg>