<?xml version="1.0" encoding="UTF-8"?>
<svg width="27px" height="16px" viewBox="0 0 27 16" version="1.1" xmlns="http://www.w3.org/2000/svg" xmlns:xlink="http://www.w3.org/1999/xlink">
    <!-- Generator: Sketch 41.1 (35376) - http://www.bohemiancoding.com/sketch -->
    <title>responsive</title>
    <desc>Created with Sketch.</desc>
    <defs></defs>
    <g id="Page-1" stroke="none" stroke-width="1" fill="none" fill-rule="evenodd" opacity="0.595731431">
        <g id="/demoday" transform="translate(-997.000000, -916.000000)" fill="#E67E22">
            <g id="Video-container" transform="translate(69.000000, 372.000000)">
                <g id="Video-block" transform="translate(0.000000, 232.000000)">
                    <g id="Text-elements" transform="translate(775.000000, 95.000000)">
                        <g id="Technos" transform="translate(41.000000, 198.000000)">
                            <g id="responsive" transform="translate(112.000000, 19.000000)">
                                <g id="Shape">
                                    <g id="Page-1">
                                        <path d="M26.260875,14.7526 C26.037,15.3362667 25.608375,15.5176 25.002,15.5096667 C22.951125,15.4847333 20.90025,15.5006 18.849375,15.4994667 C18.10125,15.4994667 17.758125,15.1538 17.758125,14.3922 C17.757,11.3186 17.757,8.245 17.758125,5.17253333 C17.758125,4.40526667 18.09225,4.06753333 18.847125,4.0664 C20.91825,4.06526667 22.9905,4.07886667 25.061625,4.05733333 C25.66575,4.05166667 26.071875,4.25566667 26.262,4.845 L26.262,14.7514667 L26.260875,14.7526 L26.260875,14.7526 Z M25.62525,13.6272 L25.62525,4.8926 L18.369,4.8926 L18.369,13.6272 L25.62525,13.6272 L25.62525,13.6272 L25.62525,13.6272 Z M23.734125,14.535 C23.73975,14.2958667 23.5575,14.0918667 23.326875,14.0794 C23.08275,14.0658 22.86675,14.2652667 22.86,14.5123333 C22.85325,14.7616667 23.05575,14.9690667 23.30325,14.9668 C23.544,14.9645333 23.7285,14.7798 23.734125,14.535 L23.734125,14.535 L23.734125,14.535 Z M21.135375,14.5293333 C21.137625,14.2788667 20.932875,14.0748667 20.6865,14.0794 C20.458125,14.0839333 20.260125,14.2868 20.255625,14.5191333 C20.251125,14.7650667 20.458125,14.9713333 20.70675,14.9668 C20.94075,14.9622667 21.13425,14.7662 21.135375,14.5293333 L21.135375,14.5293333 L21.135375,14.5293333 Z M22.008375,14.0794 C21.778875,14.0714667 21.571875,14.2641333 21.560625,14.4976 C21.54825,14.7503333 21.738375,14.96 21.987,14.9668 C22.226625,14.9736 22.42125,14.7911333 22.433625,14.5508667 C22.446,14.2981333 22.255875,14.0884667 22.008375,14.0794 L22.008375,14.0794 L22.008375,14.0794 Z M1.335375,15.9992667 C0.880875,15.8621333 0.73575,15.5538667 0.74025,15.0824 C0.75825,12.9245333 0.747,10.7655333 0.748125,8.60766667 C0.748125,8.04326667 0.964125,7.8132 1.53,7.80866667 C2.467125,7.7996 3.40425,7.80073333 4.3425,7.80866667 C4.885875,7.8132 5.117625,8.0512 5.117625,8.58953333 C5.119875,10.7893333 5.113125,12.9891333 5.12325,15.1889333 C5.1255,15.6196 4.92075,15.8576 4.55175,15.9992667 L1.335375,15.9992667 L1.335375,15.9992667 L1.335375,15.9992667 Z M1.18125,9.21966667 L1.18125,14.6166 L4.68225,14.6166 L4.68225,9.21966667 L1.18125,9.21966667 L1.18125,9.21966667 L1.18125,9.21966667 Z M19.836,3.3048 L19.836,1.6762 L3.501,1.6762 L3.501,7.038 L2.377125,7.038 L2.377125,6.71046667 L2.377125,1.38606667 C2.377125,0.784266667 2.6415,0.5168 3.245625,0.515666667 C8.850375,0.514533333 14.45625,0.514533333 20.061,0.515666667 C20.680875,0.515666667 20.948625,0.786533333 20.950875,1.4042 C20.953125,2.0264 20.950875,2.64746667 20.950875,3.3048 L19.836,3.3048 L19.836,3.3048 Z M16.99425,10.6499333 L16.99425,12.8678667 L5.8815,12.8678667 L5.8815,10.6499333 L16.99425,10.6499333 L16.99425,10.6499333 L16.99425,10.6499333 Z M12.157875,11.7379333 C12.151125,11.4568667 11.914875,11.2404 11.631375,11.254 C11.361375,11.2676 11.154375,11.492 11.16225,11.764 C11.169,12.0292 11.397375,12.2558667 11.65725,12.257 C11.9295,12.2581333 12.164625,12.0144667 12.159,11.7379333 L12.157875,11.7379333 L12.157875,11.7379333 Z M14.470875,15.4632 L8.758125,15.4632 C9.05175,15.1538 9.34875,14.9418667 9.500625,14.6517333 C9.657,14.3536667 9.67275,13.9808 9.752625,13.6317333 L13.606875,13.6317333 C13.608,14.3638667 13.83525,14.9917333 14.55525,15.3566667 C14.527125,15.3918 14.499,15.4269333 14.470875,15.4632 L14.470875,15.4632 L14.470875,15.4632 Z" id="Shape"></path>
                                    </g>
                                </g>
                            </g>
                        </g>
                    </g>
                </g>
            </g>
        </g>
    </g>
</svg>