<?xml version="1.0" encoding="UTF-8"?>
<svg width="17px" height="17px" viewBox="0 0 17 17" version="1.1" xmlns="http://www.w3.org/2000/svg" xmlns:xlink="http://www.w3.org/1999/xlink">
    <!-- Generator: Sketch 41.1 (35376) - http://www.bohemiancoding.com/sketch -->
    <title>ruby</title>
    <desc>Created with Sketch.</desc>
    <defs></defs>
    <g id="Page-1" stroke="none" stroke-width="1" fill="none" fill-rule="evenodd" opacity="0.595731431">
        <g id="/demoday" transform="translate(-885.000000, -915.000000)" fill="#B40A00">
            <g id="Video-container" transform="translate(69.000000, 372.000000)">
                <g id="Video-block" transform="translate(0.000000, 232.000000)">
                    <g id="Text-elements" transform="translate(775.000000, 95.000000)">
                        <g id="Technos" transform="translate(41.000000, 198.000000)">
                            <g id="ruby" transform="translate(0.000000, 18.000000)">
                                <g id="Shape">
                                    <g id="Page-1">
                                        <path d="M0.964363636,8.92809091 C1.06636364,8.60895455 1.18768182,7.95831818 1.4705,7.3865 C2.84672727,4.60931818 4.97559091,2.58940909 7.81845455,1.36231818 C8.36709091,1.12586364 9.02004545,1.05013636 9.62586364,1.04704545 C10.3831364,1.04318182 10.8908182,1.57018182 10.9572727,2.33440909 C10.9920455,2.73236364 10.9874091,3.17436364 10.8506364,3.54063636 C9.50377273,7.14309091 6.96227273,9.55554545 3.38918182,10.9109091 C3.25009091,10.9634545 3.09477273,10.9773636 2.94486364,10.9974545 C1.72859091,11.1643636 0.945818182,10.4750909 0.964363636,8.92809091 L0.964363636,8.92809091 L0.964363636,8.92809091 Z M10.3151364,6.25831818 C12.2902273,6.12 14.2320909,5.984 16.2666818,5.84104545 C16.1183182,5.69963636 16.0348636,5.60690909 15.9382727,5.52963636 C14.1671818,4.10936364 12.3914545,2.69527273 10.6273182,1.2665 C10.4526818,1.12509091 10.3445,0.902545455 10.1111364,0.593454545 C10.8691818,0.593454545 11.4819545,0.5865 12.0947273,0.595 C12.8342273,0.605818182 13.5915,0.533954545 14.3101364,0.666863636 C15.8640909,0.954318182 16.6932273,1.95654545 16.6638636,3.536 C16.6368182,5.01654545 16.4838182,6.49477273 16.3740909,7.973 C16.2064091,10.2363182 16.0302273,12.4996364 15.8555909,14.7621818 C15.8254545,15.1524091 15.7891364,15.5426364 15.7497273,16.0062727 C14.9283182,15.2745 14.1424545,14.5751818 13.3581364,13.8750909 C13.2569091,13.7846818 13.1726818,13.668 13.0606364,13.5961364 C12.1016818,12.9856818 11.7014091,12.0754091 11.4835,10.9874091 C11.1991364,9.56559091 10.7826364,8.17004545 10.4240909,6.76290909 C10.3839091,6.60527273 10.3545455,6.44454545 10.3143636,6.25677273 L10.3151364,6.25831818 L10.3151364,6.25831818 Z M2.90931818,14.9144091 C3.332,14.8556818 3.72763636,14.8309545 4.10472727,14.7335909 C4.25309091,14.6957273 4.42540909,14.5149091 4.47331818,14.3634545 C4.82877273,13.2391364 5.15486364,12.1047727 5.491,10.9750455 C5.52036364,10.8761364 5.56131818,10.7803182 5.61540909,10.6327273 C7.67240909,11.2910909 9.71318182,11.9448182 11.8142273,12.6170909 C10.7208182,13.7205455 9.55786364,14.6455 8.25813636,15.4769545 C10.574,15.6539091 12.8898636,15.8308636 15.2057273,16.0078182 C15.2057273,16.0371818 15.2057273,16.0673182 15.2065,16.0966818 C14.7073182,16.1322273 14.2081364,16.1693182 13.7089545,16.2025455 C10.7633182,16.3965 7.81845455,16.5896818 4.87281818,16.7820909 C4.40454545,16.813 3.9355,16.864 3.468,16.8555 C1.48518182,16.8191818 0.361636364,15.7327273 0.336136364,13.7437273 C0.321454545,12.6263636 0.436590909,11.5074545 0.507681818,10.3900909 C0.513090909,10.3058636 0.633636364,10.2285909 0.700863636,10.1482273 C0.800545455,10.2370909 0.945818182,10.3066364 0.9945,10.4179091 C1.58640909,11.7902727 2.16440909,13.1688182 2.74627273,14.5450455 C2.79340909,14.6555455 2.84363636,14.7645 2.90931818,14.9144091 L2.90931818,14.9144091 L2.90931818,14.9144091 Z" id="Shape"></path>
                                    </g>
                                </g>
                            </g>
                        </g>
                    </g>
                </g>
            </g>
        </g>
    </g>
</svg>