<?xml version="1.0" encoding="UTF-8"?>
<svg width="19px" height="8px" viewBox="0 0 19 8" version="1.1" xmlns="http://www.w3.org/2000/svg" xmlns:xlink="http://www.w3.org/1999/xlink">
    <!-- Generator: Sketch 41.1 (35376) - http://www.bohemiancoding.com/sketch -->
    <title>scraping</title>
    <desc>Created with Sketch.</desc>
    <defs></defs>
    <g id="Page-1" stroke="none" stroke-width="1" fill="none" fill-rule="evenodd" opacity="0.6">
        <g id="/demoday" transform="translate(-1075.000000, -920.000000)" fill="#000000">
            <g id="Video-container" transform="translate(69.000000, 372.000000)">
                <g id="Video-block" transform="translate(0.000000, 232.000000)">
                    <g id="Text-elements" transform="translate(775.000000, 95.000000)">
                        <g id="Technos" transform="translate(41.000000, 198.000000)">
                            <g id="scraping" transform="translate(190.000000, 23.000000)">
                                <g id="Group">
                                    <path d="M13.73757,0.0256666667 C13.6603033,-0.008 13.57322,-0.008 13.4956367,0.0256666667 C13.4566867,0.0426666667 13.4215367,0.0673333333 13.3924033,0.098 L9.90938667,3.76433333 C9.78588667,3.89466667 9.78588667,4.10533333 9.90938667,4.23566667 L13.3924033,7.902 C13.4215367,7.933 13.4566867,7.95733333 13.4956367,7.97433333 C13.53427,7.99133333 13.5754367,8 13.6166033,8 C13.65777,8 13.6989367,7.99133333 13.73757,7.97433333 C13.8151533,7.94066667 13.8769033,7.87566667 13.9088867,7.794 C13.9250367,7.75333333 13.93327,7.71 13.93327,7.66666667 L13.93327,0.333333333 C13.93327,0.29 13.9250367,0.246666667 13.9088867,0.206 C13.8769033,0.124333333 13.8151533,0.0593333333 13.73757,0.0256666667" id="Shape"></path>
                                    <path d="M5.60762833,0.0981 C5.578495,0.0671 5.543345,0.0427666667 5.504395,0.0257666667 C5.42681167,-0.0079 5.33972833,-0.0079 5.26246167,0.0257666667 C5.18487833,0.0594333333 5.12312833,0.124433333 5.091145,0.2061 C5.074995,0.246766667 5.06676167,0.2901 5.06676167,0.333433333 L5.06676167,7.66676667 C5.06676167,7.7101 5.074995,7.75343333 5.091145,7.7941 C5.12312833,7.87576667 5.18487833,7.94043333 5.26246167,7.97443333 C5.301095,7.9911 5.34226167,8.0001 5.38342833,8.0001 C5.424595,8.0001 5.46576167,7.9911 5.504395,7.97443333 C5.543345,7.95743333 5.578495,7.93276667 5.60762833,7.90176667 L9.090645,4.23576667 C9.214145,4.10543333 9.214145,3.89443333 9.090645,3.76443333 L5.60762833,0.0981 L5.60762833,0.0981 Z" id="Shape"></path>
                                    <path d="M18.05,3 L14.8833333,3 C14.7082167,3 14.5666667,3.149 14.5666667,3.33333333 L14.5666667,4.66666667 C14.5666667,4.851 14.7082167,5 14.8833333,5 L18.05,5 C18.5737667,5 19,4.55133333 19,4 C19,3.44866667 18.5737667,3 18.05,3" id="Shape"></path>
                                    <path d="M4.11666667,3 L0.95,3 C0.426233333,3 0,3.44866667 0,4 C0,4.55133333 0.426233333,5 0.95,5 L4.11666667,5 C4.29178333,5 4.43333333,4.851 4.43333333,4.66666667 L4.43333333,3.33333333 C4.43333333,3.149 4.29178333,3 4.11666667,3" id="Shape"></path>
                                </g>
                            </g>
                        </g>
                    </g>
                </g>
            </g>
        </g>
    </g>
</svg>