<?xml version="1.0" encoding="UTF-8"?>
<svg width="19px" height="8px" viewBox="0 0 19 8" version="1.1" xmlns="http://www.w3.org/2000/svg" xmlns:xlink="http://www.w3.org/1999/xlink">
    <!-- Generator: Sketch 41.1 (35376) - http://www.bohemiancoding.com/sketch -->
    <title>stripe</title>
    <desc>Created with Sketch.</desc>
    <defs></defs>
    <g id="Page-1" stroke="none" stroke-width="1" fill="none" fill-rule="evenodd" opacity="0.6">
        <g id="/demoday" transform="translate(-1100.000000, -920.000000)" fill="#6772E5">
            <g id="Video-container" transform="translate(69.000000, 372.000000)">
                <g id="Video-block" transform="translate(0.000000, 232.000000)">
                    <g id="Text-elements" transform="translate(775.000000, 95.000000)">
                        <g id="Technos" transform="translate(41.000000, 198.000000)">
                            <g id="stripe" transform="translate(215.000000, 23.000000)">
                                <g id="Layer_1">
                                    <g id="Stripe">
                                        <path d="M19,4.128 C19,2.76266667 18.3455556,1.68533333 17.0947222,1.68533333 C15.8386111,1.68533333 15.0786111,2.76266667 15.0786111,4.11733333 C15.0786111,5.72266667 15.9758333,6.53333333 17.2636111,6.53333333 C17.8916667,6.53333333 18.3666667,6.38933333 18.7255556,6.18666667 L18.7255556,5.12 C18.3666667,5.30133333 17.955,5.41333333 17.4325,5.41333333 C16.9205556,5.41333333 16.4666667,5.232 16.4086111,4.60266667 L18.9894444,4.60266667 C18.9894444,4.53333333 19,4.256 19,4.128 L19,4.128 Z M16.3927778,3.62133333 C16.3927778,3.01866667 16.7569444,2.768 17.0894444,2.768 C17.4113889,2.768 17.7544444,3.01866667 17.7544444,3.62133333 L16.3927778,3.62133333 L16.3927778,3.62133333 Z" id="Shape"></path>
                                        <path d="M13.0413889,1.68533333 C12.5241667,1.68533333 12.1916667,1.93066667 12.0069444,2.10133333 L11.9383333,1.77066667 L10.7772222,1.77066667 L10.7772222,7.98933333 L12.0966667,7.70666667 L12.1019444,6.19733333 C12.2919444,6.336 12.5716667,6.53333333 13.0361111,6.53333333 C13.9808333,6.53333333 14.8411111,5.76533333 14.8411111,4.07466667 C14.8358333,2.528 13.965,1.68533333 13.0413889,1.68533333 L13.0413889,1.68533333 Z M12.7247222,5.36 C12.4133333,5.36 12.2286111,5.248 12.1019444,5.10933333 L12.0966667,3.13066667 C12.2338889,2.976 12.4238889,2.86933333 12.7247222,2.86933333 C13.205,2.86933333 13.5375,3.41333333 13.5375,4.112 C13.5375,4.82666667 13.2102778,5.36 12.7247222,5.36 L12.7247222,5.36 Z" id="Shape"></path>
                                        <polygon id="Shape" points="8.96166667 1.37066667 10.2863889 1.08266667 10.2863889 0 8.96166667 0.282666667"></polygon>
                                        <rect id="Rectangle-path" x="8.96166667" y="1.776" width="1.32472222" height="4.66666667"></rect>
                                        <path d="M7.54194444,2.17066667 L7.4575,1.776 L6.3175,1.776 L6.3175,6.44266667 L7.63694444,6.44266667 L7.63694444,3.28 C7.94833333,2.86933333 8.47611111,2.944 8.63972222,3.00266667 L8.63972222,1.776 C8.47083333,1.712 7.85333333,1.59466667 7.54194444,2.17066667 L7.54194444,2.17066667 Z" id="Shape"></path>
                                        <path d="M4.90305556,0.618666667 L3.61527778,0.896 L3.61,5.168 C3.61,5.95733333 4.19583333,6.53866667 4.97694444,6.53866667 C5.40972222,6.53866667 5.72638889,6.45866667 5.90055556,6.36266667 L5.90055556,5.28 C5.73166667,5.34933333 4.89777778,5.59466667 4.89777778,4.80533333 L4.89777778,2.912 L5.90055556,2.912 L5.90055556,1.776 L4.89777778,1.776 L4.90305556,0.618666667 L4.90305556,0.618666667 Z" id="Shape"></path>
                                        <path d="M1.33527778,3.13066667 C1.33527778,2.92266667 1.50416667,2.84266667 1.78388889,2.84266667 C2.185,2.84266667 2.69166667,2.96533333 3.09277778,3.184 L3.09277778,1.93066667 C2.65472222,1.75466667 2.22194444,1.68533333 1.78388889,1.68533333 C0.7125,1.68533333 0,2.25066667 0,3.19466667 C0,4.66666667 2.00555556,4.432 2.00555556,5.06666667 C2.00555556,5.312 1.79444444,5.392 1.49888889,5.392 C1.06083333,5.392 0.501388889,5.21066667 0.0580555556,4.96533333 L0.0580555556,6.23466667 C0.548888889,6.448 1.045,6.53866667 1.49888889,6.53866667 C2.59666667,6.53866667 3.35138889,5.98933333 3.35138889,5.03466667 C3.34611111,3.44533333 1.33527778,3.728 1.33527778,3.13066667 L1.33527778,3.13066667 Z" id="Shape"></path>
                                    </g>
                                </g>
                            </g>
                        </g>
                    </g>
                </g>
            </g>
        </g>
    </g>
</svg>