<?xml version="1.0" encoding="UTF-8"?>
<svg width="2px" height="12px" viewBox="0 0 2 12" version="1.1" xmlns="http://www.w3.org/2000/svg" xmlns:xlink="http://www.w3.org/1999/xlink">
    <!-- Generator: Sketch 41.1 (35376) - http://www.bohemiancoding.com/sketch -->
    <title>twitlio</title>
    <desc>Created with Sketch.</desc>
    <defs></defs>
    <g id="Page-1" stroke="none" stroke-width="1" fill="none" fill-rule="evenodd">
        <g id="/demoday" transform="translate(-1207.000000, -919.000000)" fill="#F12E45">
            <g id="Video-container" transform="translate(69.000000, 372.000000)">
                <g id="Video-block" transform="translate(0.000000, 232.000000)">
                    <g id="Text-elements" transform="translate(775.000000, 95.000000)">
                        <g id="Technos" transform="translate(41.000000, 198.000000)">
                            <g id="twitlio" transform="translate(322.000000, 19.000000)">
                                <path d="M9,0 C4.02,0 0,4.02 0,9 C0,13.98 4.02,18 9,18 C13.98,18 18,13.98 18,9 C18,4.02 13.98,0 9,0 Z M9,15.6 C5.34,15.6 2.4,12.66 2.4,9 C2.4,5.34 5.34,2.4 9,2.4 C12.66,2.4 15.6,5.34 15.6,9 C15.6,12.66 12.66,15.6 9,15.6 Z" id="Shape"></path>
                            </g>
                        </g>
                    </g>
                </g>
            </g>
        </g>
    </g>
</svg>