<?xml version="1.0" encoding="UTF-8"?>
<svg width="1332px" height="331px" viewBox="0 0 1332 331" version="1.1" xmlns="http://www.w3.org/2000/svg" xmlns:xlink="http://www.w3.org/1999/xlink">
    <!-- Generator: Sketch 46.2 (44496) - http://www.bohemiancoding.com/sketch -->
    <title>logo-algolia</title>
    <desc>Created with Sketch.</desc>
    <defs>
        <linearGradient x1="-37.743747%" y1="134.947285%" x2="130.230438%" y2="-27.6885654%" id="linearGradient-1">
            <stop stop-color="#00AEFF" offset="0%"></stop>
            <stop stop-color="#3369E7" offset="100%"></stop>
        </linearGradient>
    </defs>
    <g id="Page-1" stroke="none" stroke-width="1" fill="none" fill-rule="evenodd">
        <g id="logo-algolia" fill-rule="nonzero">
            <path d="M43.8,0.4 L286.6,0.4 C310.5,0.4 330,19.8 330,43.8 L330,286.7 C330,310.6 310.6,330.1 286.6,330.1 L43.8,330.1 C19.9,330.1 0.4,310.7 0.4,286.7 L0.4,43.7 C0.4,19.8 19.8,0.4 43.8,0.4 Z" id="Shape" fill="url(#linearGradient-1)"></path>
            <path d="M169,83.7 C117.6,83.7 75.9,125.4 75.9,176.9 C75.9,228.4 117.6,270 169,270 C220.4,270 262.1,228.3 262.1,176.8 C262.1,125.3 220.5,83.7 169,83.7 Z M169,242.5 C132.8,242.5 103.4,213.1 103.4,176.9 C103.4,140.7 132.8,111.3 169,111.3 C205.2,111.3 234.6,140.7 234.6,176.9 C234.6,213.1 205.3,242.5 169,242.5 Z M169,124.7 L169,173.6 C169,175 170.5,176 171.8,175.3 L215.2,152.8 C216.2,152.3 216.5,151.1 216,150.1 C207,134.3 190.3,123.5 171,122.8 C170,122.8 169,123.6 169,124.7 L169,124.7 Z M108.2,88.8 L102.5,83.1 C96.9,77.5 87.9,77.5 82.3,83.1 L75.5,89.9 C69.9,95.5 69.9,104.5 75.5,110.1 L81.1,115.7 C82,116.6 83.3,116.4 84.1,115.5 C87.4,111 91,106.7 95,102.7 C99.1,98.6 103.3,95 107.9,91.7 C108.9,91.1 109,89.7 108.2,88.8 L108.2,88.8 Z M199.5,74 L199.5,62.7 C199.5,54.8 193.1,48.4 185.2,48.4 L151.9,48.4 C144,48.4 137.6,54.8 137.6,62.7 L137.6,74.3 C137.6,75.6 138.8,76.5 140.1,76.2 C149.4,73.5 159.2,72.1 169.1,72.1 C178.6,72.1 188,73.4 197.1,75.9 C198.3,76.2 199.5,75.3 199.5,74 L199.5,74 Z" id="Shape" fill="#FFFFFF"></path>
            <path d="M824.5,252.6 C824.5,279.3 817.7,298.8 804,311.2 C790.3,323.6 769.4,329.8 741.2,329.8 C730.9,329.8 709.5,327.8 692.4,324 L698.7,293 C713,296 731.9,296.8 741.8,296.8 C757.5,296.8 768.7,293.6 775.4,287.2 C782.1,280.8 785.4,271.3 785.4,258.7 L785.4,252.3 C781.5,254.2 776.4,256.1 770.1,258.1 C763.8,260 756.5,261 748.3,261 C737.5,261 727.7,259.3 718.8,255.9 C709.9,252.5 702.2,247.5 695.9,240.9 C689.6,234.3 684.6,226 681.1,216.1 C677.6,206.2 675.8,188.5 675.8,175.5 C675.8,163.3 677.7,148 681.4,137.8 C685.2,127.6 690.6,118.8 697.9,111.5 C705.1,104.2 713.9,98.6 724.2,94.5 C734.5,90.4 746.6,87.8 759.7,87.8 C772.4,87.8 784.1,89.4 795.5,91.3 C806.9,93.2 816.6,95.2 824.5,97.4 L824.5,252.6 L824.5,252.6 Z M715.8,175.4 C715.8,191.8 719.4,210 726.6,217.6 C733.8,225.2 743.1,229 754.5,229 C760.7,229 766.6,228.1 772.1,226.4 C777.6,224.7 782,222.7 785.5,220.3 L785.5,123.2 C782.7,122.6 771,120.2 759.7,119.9 C745.5,119.5 734.7,125.3 727.1,134.6 C719.6,143.9 715.8,160.2 715.8,175.4 Z M1010.1,175.4 C1010.1,188.6 1008.2,198.6 1004.3,209.5 C1000.4,220.4 994.9,229.7 987.8,237.4 C980.7,245.1 972.2,251.1 962.2,255.3 C952.2,259.5 936.8,261.9 929.1,261.9 C921.4,261.8 906.1,259.6 896.2,255.3 C886.3,251 877.8,245.1 870.7,237.4 C863.6,229.7 858.1,220.4 854.1,209.5 C850.1,198.6 848.1,188.6 848.1,175.4 C848.1,162.2 849.9,149.5 853.9,138.7 C857.9,127.9 863.5,118.7 870.7,111 C877.9,103.3 886.5,97.4 896.3,93.2 C906.2,89 917.1,87 928.9,87 C940.7,87 951.6,89.1 961.6,93.2 C971.6,97.4 980.2,103.3 987.2,111 C994.3,118.7 999.8,127.9 1003.8,138.7 C1008,149.5 1010.1,162.2 1010.1,175.4 L1010.1,175.4 Z M970.1,175.5 C970.1,158.6 966.4,144.5 959.2,134.7 C952,124.8 941.9,119.9 929,119.9 C916.1,119.9 906,124.8 898.8,134.7 C891.6,144.6 888.1,158.6 888.1,175.5 C888.1,192.6 891.7,204.1 898.9,214 C906.1,224 916.2,228.9 929.1,228.9 C942,228.9 952.1,223.9 959.3,214 C966.5,204 970.1,192.6 970.1,175.5 L970.1,175.5 Z M1097.2,261.9 C1033.1,262.2 1033.1,210.1 1033.1,201.8 L1033,17 L1072.1,10.8 L1072.1,194.4 C1072.1,199.1 1072.1,228.9 1097.2,229 L1097.2,261.9 L1097.2,261.9 Z M1166.1,261.9 L1126.8,261.9 L1126.8,93.1 L1166.1,86.9 L1166.1,261.9 L1166.1,261.9 Z M1146.4,68.4 C1159.5,68.4 1170.2,57.8 1170.2,44.7 C1170.2,31.6 1159.6,21 1146.4,21 C1133.2,21 1122.6,31.6 1122.6,44.7 C1122.6,57.8 1133.3,68.4 1146.4,68.4 L1146.4,68.4 Z M1263.8,87 C1276.7,87 1287.6,88.6 1296.4,91.8 C1305.2,95 1312.3,99.5 1317.5,105.2 C1322.7,110.9 1326.4,118.7 1328.6,126.9 C1330.9,135.1 1332,144.1 1332,154 L1332,254.6 C1326,255.9 1316.9,257.4 1304.7,259.2 C1292.5,261 1278.8,261.9 1263.6,261.9 C1253.5,261.9 1244.2,260.9 1235.9,259 C1227.5,257.1 1220.4,254 1214.4,249.7 C1208.5,245.4 1203.9,239.9 1200.5,233.1 C1197.2,226.3 1195.5,216.7 1195.5,206.7 C1195.5,197.1 1197.4,191 1201.1,184.4 C1204.9,177.8 1210,172.4 1216.4,168.2 C1222.9,164 1230.3,161 1238.8,159.2 C1247.3,157.4 1256.2,156.5 1265.4,156.5 C1269.7,156.5 1274.2,156.8 1279,157.3 C1283.8,157.8 1288.8,158.7 1294.2,160 L1294.2,153.6 C1294.2,149.1 1293.7,144.8 1292.6,140.8 C1291.5,136.7 1289.6,133.2 1287,130.1 C1284.3,127 1280.8,124.6 1276.4,122.9 C1272,121.2 1266.4,119.9 1259.7,119.9 C1250.7,119.9 1242.5,121 1235,122.3 C1227.5,123.6 1221.3,125.1 1216.6,126.8 L1211.9,94.7 C1216.8,93 1224.1,91.3 1233.5,89.6 C1242.9,87.9 1253,87 1263.8,87 L1263.8,87 Z M1267.1,228.9 C1279.1,228.9 1288,228.2 1294.2,227 L1294.2,187.2 C1292,186.6 1288.9,185.9 1284.8,185.3 C1280.7,184.7 1276.2,184.3 1271.2,184.3 C1266.9,184.3 1262.5,184.6 1258.1,185.3 C1253.7,185.9 1249.7,187.1 1246.2,188.8 C1242.7,190.5 1239.8,192.9 1237.7,196 C1235.5,199.1 1234.5,200.9 1234.5,205.6 C1234.5,214.8 1237.7,220.1 1243.5,223.6 C1249.4,227.2 1257.2,228.9 1267.1,228.9 L1267.1,228.9 Z M494.9,88 C507.8,88 518.7,89.6 527.5,92.8 C536.3,96 543.4,100.5 548.6,106.2 C553.9,112 557.5,119.7 559.7,127.9 C562,136.1 563.1,145.1 563.1,155 L563.1,255.6 C557.1,256.9 548,258.4 535.8,260.2 C523.6,262 509.9,262.9 494.7,262.9 C484.6,262.9 475.3,261.9 467,260 C458.6,258.1 451.5,255 445.5,250.7 C439.6,246.4 435,240.9 431.6,234.1 C428.3,227.3 426.6,217.7 426.6,207.7 C426.6,198.1 428.5,192 432.2,185.4 C436,178.8 441.1,173.4 447.5,169.2 C454,165 461.4,162 469.9,160.2 C478.4,158.4 487.3,157.5 496.5,157.5 C500.8,157.5 505.3,157.8 510.1,158.3 C514.8,158.8 519.9,159.7 525.3,161 L525.3,154.6 C525.3,150.1 524.8,145.8 523.7,141.8 C522.6,137.7 520.7,134.2 518.1,131.1 C515.4,128 511.9,125.6 507.5,123.9 C503.1,122.2 497.5,120.9 490.8,120.9 C481.8,120.9 473.6,122 466.1,123.3 C458.6,124.6 452.4,126.1 447.7,127.8 L443,95.7 C447.9,94 455.2,92.3 464.6,90.6 C474,88.8 484.1,88 494.9,88 L494.9,88 Z M498.3,230 C510.3,230 519.2,229.3 525.4,228.1 L525.4,188.3 C523.2,187.7 520.1,187 516,186.4 C511.9,185.8 507.4,185.4 502.4,185.4 C498.1,185.4 493.7,185.7 489.3,186.4 C484.9,187 480.9,188.2 477.4,189.9 C473.9,191.6 471,194 468.9,197.1 C466.7,200.2 465.7,202 465.7,206.7 C465.7,215.9 468.9,221.2 474.7,224.7 C480.5,228.2 488.4,230 498.3,230 Z M656.8,261.9 C592.7,262.2 592.7,210.1 592.7,201.8 L592.6,17 L631.7,10.8 L631.7,194.4 C631.7,199.1 631.7,228.9 656.8,229 L656.8,261.9 L656.8,261.9 Z" id="Shape" fill="#182359"></path>
        </g>
    </g>
</svg>