<svg viewBox="0 0 131 53" xmlns="http://www.w3.org/2000/svg"><path d="M35.618 31.749c0 11.35 9.17 20.553 20.482 20.553 4.121 0 7.957-1.223 11.169-3.325v3.325h9.312V31.747c0-11.35-9.172-20.551-20.481-20.551-11.312 0-20.482 9.202-20.482 20.553zm79.196 20.553h9.311V27.017h.001c0-3.72 3.068-6.923 6.777-6.923V10.87c-8.886 0-16.089 7.23-16.089 16.146zm-51.157-7.42l-4.21-2.439a11.127 11.127 0 0 1-3.347.513c-6.169 0-11.17-5.019-11.17-11.21 0-6.188 5.001-11.206 11.17-11.206s11.169 5.018 11.169 11.207c0 3.266-1.392 6.205-3.612 8.255zm35.308 7.42h9.312V.69h-9.312zm-15.848 0h9.311V.692h-9.311zM20.568 11.198a20.36 20.36 0 0 1 13.745 5.316 26.574 26.574 0 0 0-4.15 9.496c-1.949-3.276-5.516-5.47-9.595-5.47-6.169 0-11.169 5.018-11.169 11.208 0 3.265 1.392 6.204 3.612 8.254v4.882l4.21-2.44c1.056.333 2.181.512 3.347.512 4.079 0 7.646-2.193 9.595-5.47a26.565 26.565 0 0 0 4.151 9.5 20.363 20.363 0 0 1-13.746 5.317C9.257 52.303.087 43.101.087 31.75c0-11.35 9.17-20.552 20.481-20.552z" fill="#659bd5"></path></svg>