<?xml version="1.0" encoding="utf-8"?>
<!-- Generator: Adobe Illustrator 17.1.0, SVG Export Plug-In . SVG Version: 6.00 Build 0)  -->
<!DOCTYPE svg PUBLIC "-//W3C//DTD SVG 1.1//EN" "http://www.w3.org/Graphics/SVG/1.1/DTD/svg11.dtd">
<svg version="1.1" id="Calque_1" xmlns="http://www.w3.org/2000/svg" xmlns:xlink="http://www.w3.org/1999/xlink" x="0px" y="0px"
   viewBox="0 0 50 50" enable-background="new 0 0 50 50" xml:space="preserve">
<g>
  <g>
    <path fill="#6762A6" d="M38.8,48.4H9.9c-2.5,0-4.5-2-4.5-4.5V6c0-2.5,2-4.5,4.5-4.5h28.8c2.5,0,4.5,2,4.5,4.5v37.9
      C43.2,46.4,41.2,48.4,38.8,48.4L38.8,48.4L38.8,48.4z"/>
    <path fill="#FFFFFF" d="M29.1,41.9V23.3c0,0,1.2-4.4-14.9,1.8c0,0.1,0-17.2,0-17.2l5.3,0V19c0,0,14.7-5.8,14.7,4.4v18.5L29.1,41.9
      L29.1,41.9L29.1,41.9z M32.1,14.6h-5.6c2-2.5,3.8-6.7,3.8-6.7h5.8C36.1,8,35.1,10.7,32.1,14.6L32.1,14.6L32.1,14.6z M14.3,41.9
      V31.3l5.3,5.3L14.3,41.9L14.3,41.9z"/>
  </g>
</g>
</svg>
