<?xml version="1.0" encoding="utf-8"?>
<!-- Generator: Adobe Illustrator 17.1.0, SVG Export Plug-In . SVG Version: 6.00 Build 0)  -->
<!DOCTYPE svg PUBLIC "-//W3C//DTD SVG 1.1//EN" "http://www.w3.org/Graphics/SVG/1.1/DTD/svg11.dtd">
<svg version="1.1" id="Calque_1" xmlns="http://www.w3.org/2000/svg" xmlns:xlink="http://www.w3.org/1999/xlink" x="0px" y="0px"
   viewBox="0 0 50 50" enable-background="new 0 0 50 50" xml:space="preserve">
<g>
  <path fill="#A62C39" d="M6.1,48.4c0,0,0.1-11.4,0.1-22.9c0-22.4-1.9-24,8.2-24h27.9v32.3c0,10.6,2,14.8-9.2,14.8S6.1,48.4,6.1,48.4
    L6.1,48.4z"/>
  <g transform="translate(160.317939, 2.266048)">

      <linearGradient id="SVGID_1_" gradientUnits="userSpaceOnUse" x1="-383.2594" y1="272.5755" x2="-383.1633" y2="272.5974" gradientTransform="matrix(90.1138 0 0 -206.4426 34410.2539 56288.4141)">
      <stop  offset="0" style="stop-color:#FFFFFF"/>
      <stop  offset="1" style="stop-color:#C0815E"/>
    </linearGradient>
    <path fill="url(#SVGID_1_)" d="M-131.2,3.4c0,0,1.8,0.4,3.3,3c1.6,2.6,9.8,23,9.8,23V12.9l-7.6-12.4l2.1,2.6l4.1-3.3l-5.3-0.4
      L-131.2,3.4z"/>
  </g>
  <g transform="translate(50.147107, 4.260545)">

      <radialGradient id="SVGID_2_" cx="-273.1537" cy="270.9721" r="7.359741e-02" gradientTransform="matrix(199.8889 0 0 -318.6753 54578.0586 86372.7188)" gradientUnits="userSpaceOnUse">
      <stop  offset="0" style="stop-color:#FFFFFF"/>
      <stop  offset="1" style="stop-color:#A94436"/>
    </radialGradient>
    <path opacity="0.6682" fill="url(#SVGID_2_)" enable-background="new    " d="M-36.9-2.5c0,0,11.8,7.9,17.5,9.4
      c5.7,1.6,11.6,3.2,11.6,3.2l-13.5,33.4l5.8,0.2l7.6-18.7L-8-2.6L-36.9-2.5z"/>
    <path fill="#FFFFFF" fill-opacity="0.4396" d="M-25.9,32.7l12,11.5l-22.6-0.2c0,0-0.7-7.3-0.5-11.1c0.2-3.8,1.4-3.8,1.4-3.8
      L-25.9,32.7z"/>
  </g>
  <g transform="translate(2.089463, 4.260545)">
    <path fill-opacity="0.3623" d="M33.5,44.3L22.4,32.8L12.3,29L4.4,11.5l8.4-14H7.4L4.9-0.6L4,1.1v43.2H33.5z"/>
    <path opacity="0.5" fill="#83222D" enable-background="new    " d="M40.3,26c0,0-11.2,3.6-17.9,6.9S12.1,44.4,12.1,44.4
      s14.3-0.7,19.7-0.5c5.4,0.2,7.9,0.2,8.4-7.3C40.7,29.1,40.3,26,40.3,26L40.3,26z"/>
  </g>
  <g transform="translate(14.055544, 16.892288)">
    <path fill="#FFFFFF" d="M-2.8,23.8h15.9c0,0-3.5-8-2.6-15.3c0.9-7.3,6.7-10.7,10-11c3.3-0.4,5.1,1.7,5.1,1.7L26.2-2
      c0,0-4.7-4.8-10.7-4.2C9.5-5.7,5.4-1.8,2.9,3c-2.6,4.8-4.1,8.1-5.1,13.1S-2.8,23.8-2.8,23.8L-2.8,23.8z"/>
    <path fill="#FFFFFF" d="M-6,15.8l3.1,0.2l-0.5,3.1l-2.9-0.4L-6,15.8z"/>
    <path fill="#FFFFFF" d="M-1.1,9.2l0.8-2.3L-3,5.8l-0.9,2.5L-1.1,9.2z"/>
    <path fill="#FFFFFF" d="M2.8,1.2l1.6-1.9L2.3-2.1L0.6-0.2L2.8,1.2z"/>
    <path fill="#FFFFFF" d="M7-6.2l1.4,1.7l2-1.1L9-7.2L7-6.2z"/>
    <path fill="#FFFFFF" d="M14-8.2l0.4,1.7l2.4-0.1L16.6-8L14-8.2z"/>
    <path fill="#FFFFFF" d="M22.3-6.3l-0.1,1.1l1.7,0.9l0.4-0.5L22.3-6.3z"/>
    <path fill="#FFFFFF" d="M22-1.7v0.9l1.6,0.2v-0.7L22-1.7z"/>
    <path fill="#FFFFFF" d="M16.8-0.9l0.8,1.4l1.1-0.9l-0.2-1L16.8-0.9z"/>
    <path fill="#FFFFFF" d="M14.4,0.9l1.2,1.8l-0.7,1.3L13.1,2L14.4,0.9z"/>
    <path fill="#FFFFFF" d="M12,5.9l-0.8,1.6l2,1.7l0.5-2L12,5.9z"/>
    <path fill="#FFFFFF" d="M11.2,11.3L11,13.4l2.5,1.1l-0.1-2L11.2,11.3z"/>
    <path fill="#FFFFFF" d="M11.9,18.7l0.6,2.1l3.2,0.2l-1.1-2.3H11.9z"/>
  </g>
  <path fill="#5E000E" d="M6.6,48.4c0,0,0,0,0-0.1c0-0.1,0-0.1,0-0.4c0-0.4,0-0.9,0-1.4c0-1.6,0-3.3,0-5.2c0-5.4,0-10.7,0-15.8
    c0-2.6,0-4.9-0.1-8.1C6.4,7.8,6.5,5.9,7.3,4.2C8.1,2.4,9.7,2,14.3,2h27.9l-0.5-0.5v32.3c0,1,0,1.8,0,3.3c0.1,5.5,0,7.1-0.9,8.6
    c-1,1.7-3.3,2.5-7.8,2.5c-2.6,0-5.6,0-8.9,0c-2.7,0-5.6,0-8.5,0c-2.4,0-4.7,0-6.8,0c-0.7,0-1.4,0-2,0c-0.2,0-0.3,0-0.5,0
    c-0.2,0-0.2,0-0.2,0L6.6,48.4L6.6,48.4z M5.7,48.9l0.5,0c0,0,0,0,0.2,0c0.2,0,0.3,0,0.5,0c0.6,0,1.3,0,2,0c2.1,0,4.4,0,6.8,0
    c3,0,5.8,0,8.5,0c3.4,0,6.4,0,9,0c4.8,0,7.4-0.8,8.6-2.9c1-1.7,1.2-3.3,1.1-9.1c0-1.4,0-2.3,0-3.3V1.5V1h-0.5H14.3
    c-5,0-6.8,0.5-7.9,2.7C6,4.9,5.7,6.4,5.6,8.7c-0.1,1.8-0.1,2.8,0,8.7c0,3.2,0.1,5.4,0.1,8c0,5.1,0,10.4,0,15.8c0,1.9,0,3.6,0,5.2
    c0,0.5,0,1,0,1.4c0,0.2,0,0.2,0,0.4C5.7,48.4,5.7,48.9,5.7,48.9z"/>
</g>
</svg>
