<?xml version="1.0" encoding="utf-8"?>
<!-- Generator: Adobe Illustrator 17.1.0, SVG Export Plug-In . SVG Version: 6.00 Build 0)  -->
<!DOCTYPE svg PUBLIC "-//W3C//DTD SVG 1.1//EN" "http://www.w3.org/Graphics/SVG/1.1/DTD/svg11.dtd">
<svg version="1.1" id="Calque_1" xmlns="http://www.w3.org/2000/svg" xmlns:xlink="http://www.w3.org/1999/xlink" x="0px" y="0px"
   viewBox="0 0 50 50" enable-background="new 0 0 50 50" xml:space="preserve">
<g>
  <path fill="#FFD150" d="M33.1,35.8c-0.1-3.1-0.1-5.4-0.2-6.9l10.3-10.3L25,0.3L6.7,18.5L25,36.8l3.1-3.1c0,2,0,4.9-0.1,9.2
    c-0.1,2.7-0.8,3.2-1,4.8c-0.2,1.1,0.6,2,1.4,2s1.5-0.9,1.4-2c-0.1-1.1-0.7-2-0.7-4.7c-0.1-5.1-0.1-8.3-0.2-10.2l3.1-3.1
    c0,1.5,0,3.5-0.1,6.1c0,1.7-0.7,2-0.9,3c-0.1,0.7,0.6,1.3,1.3,1.3c0.7,0,1.3-0.6,1.3-1.3C33.7,38.1,33.1,37.5,33.1,35.8L33.1,35.8z
     M30.8,14.4l2.4-2.4l2.4,2.4l-2.4,2.4L30.8,14.4L30.8,14.4z M31.6,18.5L29.1,21l-2.4-2.4l2.4-2.4L31.6,18.5L31.6,18.5z M29.1,12.7
    l-2.4-2.4l2.4-2.4l2.4,2.4L29.1,12.7L29.1,12.7z M27.4,14.4L25,16.8l-2.4-2.4L25,12L27.4,14.4L27.4,14.4z M20.9,12.7l-2.4-2.4
    l2.4-2.4l2.4,2.4L20.9,12.7L20.9,12.7z M19.2,14.4l-2.4,2.4l-2.4-2.4l2.4-2.4L19.2,14.4L19.2,14.4z M20.9,16.1l2.4,2.4L20.9,21
    l-2.4-2.4L20.9,16.1L20.9,16.1z M19.2,22.7l-2.4,2.4l-2.4-2.4l2.4-2.4L19.2,22.7L19.2,22.7z M20.9,24.4l2.4,2.4l-2.4,2.4l-2.4-2.4
    L20.9,24.4L20.9,24.4z M22.6,22.7l2.4-2.4l2.4,2.4L25,25.1L22.6,22.7L22.6,22.7z M29.1,24.4l2.4,2.4l-2.4,2.4l-2.4-2.4L29.1,24.4
    L29.1,24.4z M30.8,22.7l2.4-2.4l2.4,2.4l-2.4,2.4L30.8,22.7L30.8,22.7z M37.4,21L35,18.5l2.4-2.4l2.4,2.4L37.4,21L37.4,21z
     M27.4,6.1L25,8.6l-2.4-2.4L25,3.7L27.4,6.1L27.4,6.1z M12.6,16.1l2.4,2.4L12.6,21l-2.4-2.4L12.6,16.1L12.6,16.1z M22.6,31l2.4-2.4
    l2.4,2.4L25,33.4L22.6,31L22.6,31z"/>
</g>
</svg>
